<?xml version="1.0" encoding="UTF-8" standalone="no"?>
<!DOCTYPE svg  PUBLIC '-//W3C//DTD SVG 1.1//EN'  'http://www.w3.org/Graphics/SVG/1.1/DTD/svg11.dtd'>
<svg xmlns="http://www.w3.org/2000/svg">
<defs>
<font id="Lobster-Regular" horiz-adv-x="1034">
<font-face underline-position="-103" font-weight="400" descent="-410" panose-1="2 0 5 6 0 0 0 2 0 3" units-per-em="2048" unicode-range="U+0020-2212" bbox="-426 -512 2114 2048" x-height="1024" underline-thickness="102" font-family="Lobster" ascent="1638" cap-height="1534"/>
<missing-glyph horiz-adv-x="2048"/>
<glyph glyph-name=".notdef" horiz-adv-x="2048"/>
<glyph glyph-name=".null" horiz-adv-x="0"/>
<glyph glyph-name="nonmarkingreturn" horiz-adv-x="2048"/>
<glyph glyph-name="space" horiz-adv-x="444" unicode=" "/>
<glyph glyph-name="exclam" horiz-adv-x="526" unicode="!" d="M395 164q0 -68 -47 -116q-46 -48 -114 -48t-116 48t-48 116t48 114q48 48 116 48t114 -48q47 -48 47 -114zM201 473l145 961h295l-266 -961h-174z"/>
<glyph glyph-name="quotedbl" horiz-adv-x="860" unicode='&quot;' d="M449 1149l124 387h215l-186 -387h-153zM127 1149l125 387h215l-186 -387h-154z"/>
<glyph glyph-name="numbersign" horiz-adv-x="1350" unicode="#" d="M760 668h-223l-52 -232h232zM807 227l-62 -282h-116l51 282h-242l-61 -282h-117l51 282h-219l43 209h213l43 232h-209l43 209h203l107 593h180l-133 -593h215l106 593h180l-133 -593h213l-41 -209h-217l-51 -232h219l-41 -209h-225z"/>
<glyph glyph-name="dollar" horiz-adv-x="825" unicode="$" d="M446 1176q-60 -14 -83 -60t-23 -102t57 -115zM358 295q73 10 105 63q31 52 31 128t-60 149zM567 969q49 29 49 106q0 23 -15 49t-50 41l-74 -329l80 -58q152 -106 152 -252q1 -146 -101 -224t-268 -83l-59 -274h-56l49 276q-94 7 -160 60q-65 53 -65 174q-1 79 43 127 t96 49t74 -15t23 -36q-82 -17 -82 -152q-1 -45 25 -77t61 -48l73 402l-76 59q-87 68 -114 120t-27 105q0 104 98 182t218 82l39 217h118l-51 -223q80 -14 113 -41q65 -50 65 -126q0 -158 -98 -158q-41 0 -80 47z"/>
<glyph glyph-name="percent" horiz-adv-x="1319" unicode="%" d="M1030 596q-49 0 -96 -76q-70 -110 -70 -311q0 -51 10 -92t48 -41q74 0 120 109t45 260q0 151 -57 151zM923 0q-114 0 -155 57t-41 161q0 202 90 328t242 126q91 0 139 -59t49 -195q0 -136 -73 -263q-87 -155 -251 -155zM442 1288q-75 -114 -75 -272q0 -92 10 -133t47 -41 q76 0 124 118t48 277q0 53 -9 91t-42 38q-51 0 -103 -78zM410 766q-109 0 -150 58t-41 162q0 200 90 326t242 126q90 0 129 -60t39 -188q0 -130 -83 -277t-226 -147zM248 0l790 1536h148l-791 -1536h-147z"/>
<glyph glyph-name="ampersand" horiz-adv-x="1397" unicode="&amp;" d="M1034 768l156 -10q56 0 112 20t82 68h13q0 -90 -94 -178t-218 -107q-123 -443 -389 -542q-84 -31 -220 -31t-215 35t-132 93q-106 114 -106 278t97 294t273 166q-203 109 -203 311q0 147 124 259t331 112q157 0 267 -68t110 -206q0 -189 -143 -189q-72 0 -117 53 q34 10 62 68t28 86q0 166 -135 166q-109 0 -179 -74t-71 -170q0 -96 62 -189q63 -91 208 -157q-184 -78 -270 -186t-86 -223q1 -115 71 -195t169 -80q195 0 305 199q41 74 65 186l-75 8q-35 4 -70 4q-134 0 -193 -92l-14 2q31 127 133 208t262 81z"/>
<glyph glyph-name="quotesingle" horiz-adv-x="549" unicode="&apos;" d="M209 1149l125 387h215l-187 -387h-153z"/>
<glyph glyph-name="parenleft" horiz-adv-x="895" unicode="(" d="M432 150q0 -376 150 -603l-68 -59q-231 254 -231 717q0 196 47 403q97 432 345 713q127 143 275 215l27 -82q-225 -111 -387 -510q-99 -240 -138 -523q-20 -138 -20 -271z"/>
<glyph glyph-name="parenright" horiz-adv-x="846" unicode=")" d="M485 874q0 378 -149 603l67 59q120 -132 176 -320t56 -392q0 -423 -181 -799q-88 -182 -212 -323t-275 -214l-26 82q115 57 213 193q202 270 289 703q42 208 42 408z"/>
<glyph glyph-name="asterisk" horiz-adv-x="1055" unicode="*" d="M588 1047v-277h-131v277l-219 -127l-62 106l223 129l-223 129l62 107l219 -127v276h131v-276l219 127l61 -107l-223 -129l223 -129l-61 -106z"/>
<glyph glyph-name="plus" horiz-adv-x="1055" unicode="+" d="M602 420l-55 -252h-232l56 252h-262l49 229h262l55 250h232l-56 -250h260l-47 -229h-262z"/>
<glyph glyph-name="comma" horiz-adv-x="442" unicode="," d="M84 -258q-18 12 -18 37q0 33 53 89t53 87t-34 53q-89 58 -89 135q1 77 47 125t115 49q100 0 130 -93q9 -29 9 -68q0 -92 -72 -212t-194 -202z"/>
<glyph glyph-name="hyphen" horiz-adv-x="594" unicode="-" d="M39 455l37 161h409l-34 -161h-412z"/>
<glyph glyph-name="period" horiz-adv-x="539" unicode="." d="M341 269q48 -48 48 -116q-1 -69 -49 -115t-114 -46t-116 47q-47 47 -47 114t47 116q48 48 116 48t115 -48z"/>
<glyph glyph-name="slash" horiz-adv-x="637" unicode="/" d="M23 -512l434 2048h147l-434 -2048h-147z"/>
<glyph glyph-name="zero" horiz-adv-x="1118" unicode="0" d="M375 463q0 -309 121 -309q88 0 156 86q135 168 190 539q26 176 26 297q0 204 -18 268q-24 86 -90 86t-146 -96q-134 -162 -198 -452q-41 -180 -41 -419zM772 1536q365 0 365 -521q0 -360 -169 -676q-190 -357 -496 -357q-236 0 -332 141q-79 118 -79 363q0 588 293 876 q177 174 418 174z"/>
<glyph glyph-name="one" horiz-adv-x="649" unicode="1" d="M43 0l270 1278h-194l24 94q115 0 194 20q166 43 327 140l-326 -1532h-295z"/>
<glyph glyph-name="two" horiz-adv-x="1008" unicode="2" d="M557 1534q389 0 389 -330q0 -281 -300 -534l-164 -136q-82 -66 -152 -130t-113 -134h10q93 0 185 -18t176 -19q84 0 119 9q64 17 123 72l63 61q2 -25 2 -47v-43q1 -163 -49 -235t-180 -73t-230 25t-156 38q-58 12 -106 11q-63 0 -114 -23l-78 -34q-5 16 -5 33v34 q0 112 49 204q81 151 284 353t291 390q50 111 50 247q0 76 -40 122t-88 46q-95 0 -129 -40t-34 -119t42 -124q15 -16 36 -22q-78 -69 -148 -69t-113 47q-42 47 -42 118q0 138 104 229t318 91z"/>
<glyph glyph-name="three" horiz-adv-x="1053" unicode="3" d="M440 1280q0 -140 78 -162q-77 -69 -156 -69q-100 0 -136 99q-11 32 -11 88t33 114t90 98q120 86 300 86t282 -87q100 -87 100 -201t-70 -217t-211 -175q135 -44 197 -136t61 -202q0 -197 -157 -356q-167 -169 -412 -169q-58 0 -122 9q-161 26 -247 150q-47 70 -47 193 t62 206q63 82 194 82t152 -105q-180 -12 -180 -221q0 -152 98 -175q28 -7 76 -7q48 1 100 29q53 28 90 76q76 99 76 241q0 198 -150 320q-51 42 -122 67q162 46 256 164t94 235q0 168 -174 168q-56 1 -100 -43t-44 -100z"/>
<glyph glyph-name="four" horiz-adv-x="975" unicode="4" d="M395 0l121 563h-500q18 56 47 120l129 277q123 271 123 453q0 64 -14 123q152 0 209 -110q18 -38 18 -110t-32 -154t-78 -158t-98 -146t-91 -143h320l166 780l303 41l-176 -821h131l-41 -152h-123l-119 -563h-295z"/>
<glyph glyph-name="five" horiz-adv-x="1059" unicode="5" d="M391 -10q-360 0 -360 295q0 147 79 219q80 72 196 71q116 0 136 -104q-80 -11 -132 -57t-52 -134t56 -124q42 -29 109 -29q123 0 193 115q70 114 70 262t-60 222t-154 75q-94 0 -156 -29q-113 -55 -160 -86l168 817q54 -6 102 -12l93 -11q94 -12 173 -12q164 0 332 66 q4 -32 4 -74q0 -98 -56 -164t-179 -67q-80 -1 -196 23t-146 28l-82 -371q132 64 241 64q191 0 283 -121t92 -303q0 -234 -140 -386q-160 -173 -454 -173z"/>
<glyph glyph-name="six" horiz-adv-x="1018" unicode="6" d="M461 625q-41 59 -41 111q0 96 85 154t181 58t148 -30t86 -79q65 -92 65 -227q0 -266 -165 -444t-388 -178q-326 0 -382 250q-17 73 -17 155v37q0 137 32 304t75 286q90 242 248 378t378 136q108 0 172 -51t63 -111q0 -60 -44 -100q-44 -41 -138 -45q33 31 33 73t-29 76 q-29 35 -73 35q-100 1 -202 -121t-172 -402q-38 -148 -54 -308t-17 -222q0 -126 40 -168t107 -42q118 0 206 134q92 136 92 282q0 214 -107 214t-182 -155z"/>
<glyph glyph-name="seven" horiz-adv-x="950" unicode="7" d="M467 80q-30 -80 -179 -80q-112 0 -166 55t-54 191t52 266q98 240 347 542l246 292q-90 12 -174 12q-295 0 -424 -146q-17 74 -17 122q0 102 65 152t214 50h672l-195 -298l-260 -414q-143 -239 -162 -281q-65 -151 -65 -264q1 -62 23 -107t77 -92z"/>
<glyph glyph-name="eight" horiz-adv-x="1022" unicode="8" d="M555 924q145 94 193 274q14 50 14 104t-26 94t-76 40q-96 0 -155 -80t-59 -168q0 -169 109 -264zM352 854q-174 101 -174 279q0 153 130 277t321 124q189 0 291 -85t102 -201t-71 -219q-71 -104 -216 -175q130 -40 189 -128t59 -170t-19 -148q-19 -65 -54 -126 q-76 -130 -206 -211t-288 -81q-202 0 -317 122t-115 280q0 160 96 285t272 177zM532 784q-183 -125 -236 -334q-15 -61 -15 -110q-1 -95 37 -149t99 -54q109 -1 177 103t68 241q0 190 -130 303z"/>
<glyph glyph-name="nine" horiz-adv-x="1001" unicode="9" d="M590 868q43 -51 43 -102q0 -78 -81 -133t-208 -55q-126 0 -200 108t-74 250q0 254 154 427t376 173q395 0 395 -481q0 -309 -83 -549q-84 -240 -242 -378t-369 -138q-111 0 -177 60t-65 134q0 152 177 152q-29 -29 -29 -72q-1 -44 31 -78t65 -34t51 2t60 19q41 17 74 47 q88 78 158 261t93 516q4 78 4 107q0 176 -44 236t-139 61t-176 -141t-81 -304q-1 -84 25 -148t90 -63q125 0 172 123z"/>
<glyph glyph-name="colon" horiz-adv-x="547" unicode=":" d="M464 884q48 -48 48 -116t-48 -116q-48 -46 -116 -46q-66 0 -115 47q-47 47 -47 115t47 116t115 48t116 -48zM410 276q0 -68 -49 -114t-116 -47q-67 0 -114 47t-47 114q0 68 46 116t115 48t117 -48t48 -116z"/>
<glyph glyph-name="semicolon" horiz-adv-x="565" unicode=";" d="M129 -225q-18 12 -18 37q0 33 53 89t53 86t-27 50q-96 62 -96 139q0 78 46 126t116 48q100 0 130 -94q9 -28 9 -68q0 -91 -73 -212t-193 -201zM354 842q68 0 116 -48t48 -117t-48 -115t-116 -46q-67 0 -114 47t-47 114q1 67 47 116t114 49z"/>
<glyph glyph-name="less" horiz-adv-x="735" unicode="&lt;" d="M41 487l18 84l629 308l-20 -113l-494 -246l397 -196l-24 -117z"/>
<glyph glyph-name="equal" horiz-adv-x="1055" unicode="=" d="M66 207l49 229h753l-47 -229h-755zM156 647l49 230h753l-47 -230h-755z"/>
<glyph glyph-name="greater" horiz-adv-x="705" unicode="&gt;" d="M31 207l28 117l492 196l-397 246l18 113l504 -308l-23 -110z"/>
<glyph glyph-name="question" horiz-adv-x="903" unicode="?" d="M424 164q0 -68 -47 -116t-115 -48t-116 48t-48 116t48 114q48 48 116 48t115 -48t47 -114zM418 1018q-54 -86 -150 -86q-60 0 -108 43t-47 112q0 141 99 234q118 113 331 113q275 0 316 -152q12 -43 12 -80t-1 -40q0 -207 -208 -364l-111 -90q-132 -111 -172 -233h-135 q0 120 96 243q42 52 90 102t90 104q96 127 96 246q0 153 -116 153q-56 0 -108 -49q-52 -48 -52 -120t41 -114q15 -16 37 -22z"/>
<glyph glyph-name="at" horiz-adv-x="1151" unicode="@" d="M485 371q26 0 68 28q0 20 6 43l88 340q-14 17 -48 17t-65 -46q-67 -99 -83 -281q-2 -22 -2 -38q0 -63 36 -63zM506 857q37 27 83 27l1 1q45 0 74 -37l8 33l112 -13l-92 -393q-8 -26 -8 -56t29 -30q80 0 142 339q13 74 13 110q0 79 -34 118q-44 54 -132 54t-154 -28 q-65 -28 -118 -74q-104 -94 -162 -247t-59 -297q0 -144 53 -201q52 -57 180 -57t199 32t125 104q47 -19 47 -80q0 -112 -111 -174q-114 -66 -310 -66t-302 94t-106 320q0 335 206 570q130 149 308 206q90 28 162 28t126 -10q126 -23 187 -141q33 -64 33 -167 q0 -104 -30 -200t-79 -172t-111 -124q-62 -47 -128 -47q-64 0 -91 47q-53 -80 -121 -80q-131 0 -131 136t60 280q60 142 131 195z"/>
<glyph glyph-name="A" horiz-adv-x="1368" unicode="A" d="M727 905q143 -28 250 -71l119 557q-176 -96 -369 -486zM438 70q-20 -108 -20 -186t28 -117q-121 0 -170 25q-104 52 -104 192q0 212 178 596q56 120 123 237q-95 -5 -157 -29t-83 -77q9 -1 18 -21t9 -50t-34 -52t-70 -21q-66 -1 -102 31t-36 86q0 106 119 180 q121 74 299 74q41 0 107 -6q167 260 353 432t359 172q104 0 162 -29l-321 -1507h-295l157 743q-136 62 -274 74q-184 -407 -246 -747z"/>
<glyph glyph-name="B" horiz-adv-x="1313" unicode="B" d="M956 530q0 261 -194 261q-45 0 -94 -7l-168 -784h-295l278 1303l303 40l-96 -454h12q118 0 206 106t89 226q0 150 -145 203q-52 18 -118 18t-128 -14t-118 -40q-125 -62 -199 -174t-74 -270q0 -81 25 -125q4 -8 4 -14q-162 0 -204 100q-15 36 -15 88q0 109 61 205 t164 172q229 166 518 166q214 0 325 -94t111 -232q0 -92 -52 -180t-153 -145q124 -25 183 -115t59 -215q0 -73 -21 -175q-48 -226 -212 -351q-86 -64 -218 -64t-180 75q-20 30 -20 78t26 118q69 -74 132 -74q108 0 163 126q45 102 45 242z"/>
<glyph glyph-name="C" horiz-adv-x="1018" unicode="C" d="M1096 1262q0 -189 -144 -189q-72 0 -116 53q38 20 66 75t28 109t-28 92t-92 38q-62 0 -116 -42t-100 -114q-95 -144 -155 -368t-60 -406q-1 -182 53 -264t184 -82q256 0 408 205l47 -21q-98 -248 -373 -344q-108 -38 -212 -38h-6q-227 2 -334 118t-107 373t85 513 q99 302 292 452q148 114 338 114q238 0 315 -149q27 -52 27 -125z"/>
<glyph glyph-name="D" horiz-adv-x="1358" unicode="D" d="M969 59q-103 -86 -221 -86t-244 109l-17 -82h-294l278 1303l303 40l-246 -1148q56 -41 117 -41q92 0 165 82q141 159 200 503q28 158 28 316q0 387 -299 387q-234 0 -385 -135t-151 -363q0 -83 23 -125q5 -8 5 -14q-162 0 -204 101q-15 37 -15 98q0 60 28 128t77 128 q102 124 278 200t379 76q369 0 494 -298q53 -126 53 -298t-47 -346q-97 -363 -305 -535z"/>
<glyph glyph-name="E" horiz-adv-x="940" unicode="E" d="M393 854q-125 91 -125 251q0 159 130 297t319 138q127 0 210 -66t83 -174t-45 -168t-104 -61q-59 0 -99 55q36 14 63 68t27 114t-36 85q-37 26 -80 26q-86 -1 -146 -89t-60 -200q0 -154 112 -232q40 -28 95 -42q-156 -34 -261 -187t-105 -302q0 -87 45 -147t148 -60 q104 0 214 55t166 154l47 -21q-81 -178 -247 -282t-352 -103q-188 -1 -283 103t-95 266t105 321t274 201z"/>
<glyph glyph-name="F" horiz-adv-x="940" unicode="F" d="M1047 1290q-111 0 -287 39l-86 -407h299l-33 -152h-299l-166 -770h-295l295 1368q-130 -4 -198 -98q-68 -93 -68 -326q0 -81 25 -125q4 -8 4 -14q-165 0 -206 105q-14 38 -14 117t38 175t122 170q185 164 539 164q67 0 154 -12t190 -13q103 0 180 25l-19 -69 q-37 -147 -175 -177z"/>
<glyph glyph-name="G" horiz-adv-x="1184" unicode="G" d="M950 1279q0 161 -141 161q-83 0 -167 -65t-146 -166q-64 -101 -103 -228t-39 -222q0 -174 59 -270t177 -96t176 76l88 389l264 -2l-168 -770q-52 -254 -169 -382t-355 -128q-136 0 -210 83t-75 197t67 198t170 85q102 0 137 -17q77 -34 77 -120q0 -37 -12 -82 q-63 53 -129 53q-66 1 -102 -49t-36 -104q-1 -54 31 -98t83 -44t81 10q92 29 139 242l82 367q-136 -74 -256 -74q-229 0 -340 156q-94 133 -94 369q0 148 49 290q76 214 252 356t428 142t344 -149q33 -52 33 -125q0 -189 -144 -189q-95 0 -141 53q34 13 62 69t28 84z"/>
<glyph glyph-name="H" horiz-adv-x="1362" unicode="H" d="M801 0l164 770h-301l-164 -770h-295l297 1393q-136 -58 -212 -171t-75 -278q0 -81 25 -125q4 -8 4 -14q-166 0 -205 105q-14 38 -14 94q0 103 65 198q131 195 396 289q127 45 257 45q42 0 82 -4l-131 -610h301l131 610h295l-325 -1532h-295z"/>
<glyph glyph-name="I" horiz-adv-x="768" unicode="I" d="M489 1391q-286 -120 -286 -447q0 -83 23 -125q5 -8 5 -14q-164 0 -205 105q-14 38 -14 94q0 102 64 198t167 170q233 164 488 164q42 0 82 -4l-326 -1532h-294z"/>
<glyph glyph-name="J" horiz-adv-x="1098" unicode="J" d="M862 1393q-135 -55 -212 -169t-77 -280q0 -81 25 -125q4 -8 4 -14q-164 0 -204 105q-15 38 -15 94q1 102 65 198t166 170q233 164 488 164h82l-307 -1454q-55 -250 -177 -378t-362 -128q-148 0 -226 80q-77 80 -77 200t67 201q66 82 168 82t138 -17q77 -34 77 -120 q0 -37 -12 -82q-57 46 -83 50t-40 3q-71 0 -107 -47t-36 -96q1 -82 43 -117t86 -35q83 0 126 50t79 202z"/>
<glyph glyph-name="K" horiz-adv-x="1231" unicode="K" d="M842 641q0 139 -123 139q-28 0 -68 -8l-164 -772h-294l296 1393q-136 -58 -211 -171t-75 -278q0 -83 23 -125q5 -8 5 -14q-164 0 -205 105q-14 38 -14 94q0 102 64 198t167 170q233 164 488 164q42 0 82 -4l-133 -627l450 603l15 18h215l-569 -656l71 2q205 0 242 -132 q12 -40 12 -95q0 -83 -50 -265t-50 -237q0 -113 80 -143q-128 -35 -203 -35q-160 0 -160 137q1 72 55 262t54 277z"/>
<glyph glyph-name="L" horiz-adv-x="776" unicode="L" d="M489 1370q-136 -55 -211 -167t-75 -279q0 -83 23 -125q5 -8 5 -15q-164 0 -205 105q-14 38 -14 94q0 200 231 368q234 165 488 165q32 0 82 -5l-315 -1470q84 -19 177 -69l149 -81q207 -114 362 -114q94 0 172 33q-16 -146 -72 -234t-141 -88q-132 0 -313 140l-234 180 q-198 145 -367 145h-23q-11 0 -24 -2z"/>
<glyph glyph-name="M" horiz-adv-x="1612" unicode="M" d="M360 805q-219 0 -219 186q0 194 209 371q90 78 208 126t215 48t175 -29l-47 -1079l451 1079h295l-215 -1507h-295l131 920l-385 -920h-281l41 924l-342 -924h-164l520 1407q-153 -51 -239 -168t-86 -293q0 -88 24 -128q4 -7 4 -13z"/>
<glyph glyph-name="N" horiz-adv-x="1368" unicode="N" d="M889 0l-174 1071l-228 -1071h-294l294 1391q-136 -57 -210 -169t-74 -278q0 -83 23 -125q5 -8 5 -14q-164 0 -205 105q-14 38 -14 96t18 119q18 62 54 121q76 130 208 210t300 80q48 0 96 -3t94 -26l162 -1085l223 1110h295l-325 -1532h-248z"/>
<glyph glyph-name="O" horiz-adv-x="1362" unicode="O" d="M858 1536q485 0 485 -524q0 -353 -177 -660q-126 -221 -336 -316q-108 -48 -216 -48t-174 22q-219 74 -219 389q0 211 79 449q126 384 346 484q60 28 126 28t111 -17q-89 -53 -176 -227q-126 -249 -169 -552q-14 -94 -14 -173q0 -237 119 -237h2q99 0 198 144t163 364 t65 416q0 196 -54 280t-208 84q-246 0 -418 -146t-172 -381q1 -59 11 -79t10 -31q-100 0 -154 39t-53 139q0 100 68 201q145 212 447 306q150 46 310 46z"/>
<glyph glyph-name="P" horiz-adv-x="1174" unicode="P" d="M193 0l278 1303l303 40l-145 -684q150 14 254 172t104 342t-139 247q-48 22 -115 22q-250 0 -390 -131t-140 -367q0 -83 23 -125q5 -8 5 -14q-164 0 -205 105q-14 38 -14 94q0 102 64 198t167 170q233 164 479 164t369 -116t123 -287q0 -98 -40 -196t-118 -177 q-172 -176 -433 -176h-11l-125 -584h-294z"/>
<glyph glyph-name="Q" horiz-adv-x="1362" unicode="Q" d="M721 176q-43 70 -117 70q-27 0 -59 -8q28 -84 98 -84q43 0 78 22zM858 1536q485 0 485 -524q-1 -240 -99 -502t-292 -404q55 -79 94 -109q73 -56 162 -56q21 0 45 4q-41 -107 -93 -141t-120 -35q-120 0 -184 79q-38 47 -78 168q-88 -28 -180 -28q-180 0 -278 98t-99 312 q0 212 79 450q126 384 346 484q60 28 126 28t111 -17q-89 -53 -176 -227q-126 -249 -169 -552q-14 -94 -14 -173v-46q0 -21 4 -42q72 19 144 19t147 -56q106 132 179 364t73 442v11q0 191 -54 275t-208 84q-246 0 -418 -146t-172 -381q1 -59 11 -79t10 -31q-100 0 -154 39 t-53 139q0 100 68 201q145 212 447 306q150 46 310 46z"/>
<glyph glyph-name="R" horiz-adv-x="1231" unicode="R" d="M975 858q141 -40 141 -201q0 -95 -50 -277t-50 -237q0 -113 80 -143q-128 -35 -203 -35q-160 0 -160 137q1 72 55 262t54 277q0 139 -123 139q-26 0 -68 -8l-164 -772h-294l278 1303l303 40l-100 -473h16q122 0 206 116t85 252q0 136 -123 186q-42 18 -134 18t-194 -34 t-174 -98q-153 -136 -153 -366q0 -83 23 -125q5 -8 5 -14q-164 0 -205 105q-14 38 -14 94q0 102 64 198t167 170q233 164 475 164t360 -94t118 -234q0 -94 -58 -190t-163 -160z"/>
<glyph glyph-name="S" horiz-adv-x="1167" unicode="S" d="M852 1126q92 53 92 190q0 40 -32 82t-120 42q-86 0 -137 -46t-51 -122q0 -75 20 -120q36 -83 126 -162l84 -76q112 -100 152 -166q79 -133 79 -270q0 -255 -176 -394q-159 -127 -400 -127q-298 0 -399 191q-35 67 -35 156q0 161 92 251t206 90t163 -69q19 -26 21 -66 q-157 0 -218 -103q-22 -37 -22 -83q-1 -87 51 -145t151 -58t165 71t67 180q0 110 -31 180t-78 131t-101 117t-101 112q-109 132 -109 257q1 159 137 263t336 104q247 0 312 -150q18 -40 18 -114t-45 -131q-45 -58 -113 -58t-104 43z"/>
<glyph glyph-name="T" horiz-adv-x="985" unicode="T" d="M899 1315l-283 -1315h-294l290 1356h-24q-181 0 -274 -84q-111 -100 -111 -330q0 -83 23 -125q5 -8 5 -14q-164 0 -205 105q-14 38 -14 117t38 175t122 170q185 164 539 164q145 0 231 -15t148 -23q64 -9 170 -9t213 43q-10 -260 -256 -260q-93 0 -318 45z"/>
<glyph glyph-name="U" horiz-adv-x="1466" unicode="U" d="M1270 1532h289l-136 -639q-78 -381 -160 -561q-98 -215 -263 -292q-118 -54 -258 -54t-216 22t-122 62q-87 79 -87 237t51 368l185 742q-169 -45 -266 -164t-97 -307q0 -87 24 -128q5 -7 5 -13q-162 0 -204 100q-15 36 -15 88q0 109 65 207q137 203 420 292 q141 44 289 44q45 0 98 -10l-209 -778q-67 -259 -67 -362q0 -104 32 -152t120 -48q89 0 129 30q73 56 127 200t129 483z"/>
<glyph glyph-name="V" horiz-adv-x="1260" unicode="V" d="M541 0l-33 1399q-144 -54 -224 -169t-81 -286q0 -83 23 -125q5 -8 5 -14q-164 0 -205 105q-14 38 -14 94q0 102 64 198t167 170q233 164 488 164q42 0 82 -4l18 -1260l431 1254h143l-569 -1526h-295z"/>
<glyph glyph-name="W" horiz-adv-x="1970" unicode="W" d="M1249 0l-24 1042l-389 -1042h-295l-33 1399q-144 -54 -224 -169t-81 -286q0 -83 23 -125q5 -8 5 -14q-164 0 -205 105q-14 38 -14 94q0 102 64 198t167 170q233 164 488 164q42 0 82 -4l18 -1260l431 1254h260l18 -1254l430 1254h144l-570 -1526h-295z"/>
<glyph glyph-name="X" horiz-adv-x="1270" unicode="X" d="M805 0l-109 512l-297 -512h-125l385 680l-151 719q-144 -54 -224 -169t-81 -286q0 -83 23 -125q5 -8 5 -14q-164 0 -205 105q-14 38 -14 94q0 102 64 198t167 170q233 164 488 164q42 0 82 -4l88 -426l238 420h143l-344 -596l192 -930h-325z"/>
<glyph glyph-name="Y" horiz-adv-x="1270" unicode="Y" d="M569 0l136 631l-197 768q-144 -54 -224 -169t-81 -286q0 -83 23 -125q5 -8 5 -14q-164 0 -205 105q-14 38 -14 94q0 102 64 198t167 170q233 164 488 164q42 0 82 -4l178 -733l303 727h136l-398 -895l-135 -631h-328z"/>
<glyph glyph-name="Z" horiz-adv-x="1110" unicode="Z" d="M424 133l197 -4q71 -1 131 7t82 38q-11 0 -24 14t-13 48q0 60 37 90t90 30q52 0 76 -38t24 -78q0 -88 -74 -164t-188 -76h-739l716 1425l-184 5q-188 0 -188 -46q10 0 22 -14t12 -50q1 -62 -37 -90t-91 -28t-75 38t-22 80q0 86 67 151t185 65h702z"/>
<glyph glyph-name="bracketleft" horiz-adv-x="819" unicode="[" d="M-49 -512l434 2048h395l-26 -127h-248l-381 -1794h248l-27 -127h-395z"/>
<glyph glyph-name="backslash" horiz-adv-x="741" unicode="\" d="M520 -512l-434 2048h147l435 -2048h-148z"/>
<glyph glyph-name="bracketright" horiz-adv-x="819" unicode="]" d="M-49 -512l26 127h248l381 1794h-248l27 127h395l-434 -2048h-395z"/>
<glyph glyph-name="asciicircum" horiz-adv-x="862" unicode="^" d="M637 1149l-123 164l-321 -164h-91l435 387h43l122 -387h-65z"/>
<glyph glyph-name="underscore" horiz-adv-x="909" unicode="_" d="M74 0l37 162h716l-34 -162h-719z"/>
<glyph glyph-name="grave" horiz-adv-x="412" unicode="`" d="M170 1149l-121 387h215l60 -387h-154z"/>
<glyph glyph-name="a" horiz-adv-x="1077" unicode="a" d="M647 829q1 19 -17 49t-75 29q-57 0 -111 -61q-130 -147 -163 -422q-5 -42 -5 -89q0 -91 38 -127q22 -22 55 -22q61 0 111 48t69 133zM1163 367q-130 -379 -411 -379q-181 0 -201 188q-135 -188 -313 -188t-242 175q-23 63 -23 143t14 162q14 80 43 160q64 176 183 291 t287 115q88 0 127 -30t39 -74v-15l22 109h295l-147 -696q-9 -35 -9 -66q0 -88 84 -88q109 0 166 193h86z"/>
<glyph glyph-name="b" horiz-adv-x="909" unicode="b" d="M285 328q-6 -26 -6 -47q0 -95 108 -95q90 0 170 170q70 159 70 311t-61 201q-21 17 -40 17q-39 1 -76 -9t-53 -28zM592 1030q242 0 242 -350q0 -236 -118 -436q-92 -156 -251 -222q-83 -34 -209 -34t-198 69t-72 193q0 55 14 117l219 1026l303 41l-98 -461q92 57 168 57z "/>
<glyph glyph-name="c" horiz-adv-x="786" unicode="c" d="M506 1042q246 0 246 -186q0 -78 -32 -114t-72 -37q-40 0 -77 24q25 66 25 121q0 84 -58 84t-124 -106q-93 -150 -128 -373q-10 -67 -10 -147q0 -148 141 -148q119 0 199 52t170 155h70q-230 -379 -563 -379q-146 0 -233 76t-87 249q0 235 119 454q90 165 247 237 q81 38 167 38z"/>
<glyph glyph-name="d" horiz-adv-x="1075" unicode="d" d="M276 335q0 -149 102 -149q44 0 96 42t73 128v11l100 469q-19 71 -84 71t-119 -61q-130 -147 -163 -422q-5 -42 -5 -89zM549 176q-125 -188 -307 -188t-246 175q-23 63 -23 143t14 162q14 80 43 160q64 176 183 291t287 115q88 0 127 -30t39 -74v-8l100 471l303 41 l-235 -1106q-9 -35 -9 -72q0 -70 84 -70q115 0 166 181h86q-128 -367 -411 -367q-177 0 -201 176z"/>
<glyph glyph-name="e" horiz-adv-x="786" unicode="e" d="M594 860q0 74 -51 74q-75 -2 -145 -132t-101 -290q117 8 207 110t90 238zM856 367q-230 -379 -563 -379q-146 0 -233 76t-87 249q0 234 119 453q91 167 248 238q81 38 168 38q142 0 193 -54t51 -142q0 -176 -141 -298t-330 -134q-5 -58 -5 -82q0 -104 37 -138t104 -34 q119 0 199 52t170 155h70z"/>
<glyph glyph-name="f" horiz-adv-x="547" unicode="f" d="M-88 -51q-109 -38 -150 -71q-75 -62 -75 -140q0 -40 49 -62q14 -6 40 -6t58 35t51 125zM686 1229q4 32 4 61q0 28 -24 46t-46 18q-50 0 -92 -38t-59 -130l-35 -162h150l-15 -82h-151l-236 -1106q-70 -348 -366 -348q-94 0 -168 62t-74 146q0 83 28 132t76 84 q70 49 248 104l248 1170q73 348 373 348q95 0 168 -62t73 -159q0 -47 -6 -84h-96z"/>
<glyph glyph-name="g" horiz-adv-x="1038" unicode="g" d="M446 -111q-200 -72 -200 -174q0 -41 39 -61q13 -6 38 -6t58 44t53 138zM647 831q0 46 -43 67q-16 9 -41 9q-65 0 -119 -61q-130 -147 -163 -422q-5 -42 -5 -89q0 -91 38 -127q22 -22 54 -22q57 0 106 44t69 116zM492 100q-107 -112 -246 -112q-186 0 -250 175 q-23 63 -23 143t14 162q14 80 43 160q64 176 183 291t287 115q88 0 127 -30t39 -74v-12l22 106h295l-203 -950q94 30 154 94t104 199h86q-78 -264 -264 -348q-51 -23 -98 -35l-31 -148q-39 -197 -156 -284q-86 -64 -197 -64t-178 49t-67 157q0 187 334 298z"/>
<glyph glyph-name="h" d="M780 274q0 -88 75 -88q69 0 106 44t73 137h86q-119 -345 -322 -375q-32 -4 -79 -4t-93 20q-128 54 -128 211q0 84 46 268t46 254q0 105 -74 105t-132 -117q-17 -33 -28 -72l-139 -657h-295l297 1393l303 41l-110 -516q100 114 239 114q98 0 163 -54t65 -160t-34 -240 l-49 -198q-16 -65 -16 -106z" unicode="h"/>
<glyph glyph-name="i" horiz-adv-x="547" unicode="i" d="M633 367q-132 -379 -441 -379q-81 0 -145 58q-63 58 -63 187q0 58 16 134l139 657h295l-147 -696q-8 -37 -8 -73q0 -69 83 -69q60 0 112 52t73 129h86zM506 1296q0 -68 -48 -114t-116 -47q-68 0 -115 47t-47 114q0 68 46 116t116 48q68 0 116 -48t48 -116z"/>
<glyph glyph-name="j" horiz-adv-x="492" unicode="j" d="M-100 -111q-201 -70 -201 -174q0 -41 39 -61q13 -6 38 -6t58 44t53 138zM489 1298q-1 -68 -49 -114t-115 -47q-67 0 -114 47t-47 114q0 68 46 116t115 48q68 0 116 -48t48 -116zM184 -164q-39 -197 -156 -284q-86 -64 -196 -64t-178 50t-68 149q0 166 218 260 q60 26 118 45l219 1032h295l-203 -950q95 32 155 95t104 198h86q-80 -263 -264 -347q-51 -24 -99 -36z"/>
<glyph glyph-name="k" horiz-adv-x="1061" unicode="k" d="M1147 367q-128 -379 -377 -379q-128 0 -193 60t-65 173q0 47 12 107l17 80q8 43 8 75q0 99 -74 99q-58 0 -151 -76l-107 -506h-295l297 1393l303 41l-153 -721l395 311h203l-410 -285q36 9 68 9q113 0 169 -71t56 -169q0 -36 -8 -78l-23 -102q-10 -42 -10 -66 q0 -76 83 -76t136 108q16 33 33 73h86z"/>
<glyph glyph-name="l" horiz-adv-x="547" unicode="l" d="M633 367q-132 -379 -441 -379q-81 0 -145 58q-63 58 -63 187q0 58 16 134l219 1026l303 41l-235 -1106q-8 -37 -8 -73q0 -69 83 -69q60 0 112 52t73 129h86z"/>
<glyph glyph-name="m" horiz-adv-x="1540" unicode="m" d="M1266 -12q-262 0 -262 231q0 84 46 268t46 254q0 105 -74 105t-132 -117q-17 -33 -28 -72l-139 -657h-295l150 707q6 24 6 51q0 90 -60 90t-104 -56q-42 -56 -64 -135l-139 -657h-295l217 1024h295l-22 -106q102 116 250 116q181 0 210 -176q113 174 285 174 q97 0 162 -54t65 -158t-34 -240l-48 -200q-16 -65 -16 -106q0 -88 75 -88q69 0 106 44t73 137h86q-76 -226 -192 -317q-80 -62 -168 -62z"/>
<glyph glyph-name="n" d="M780 274q0 -88 75 -88q69 0 106 44t73 137h86q-119 -345 -322 -375q-32 -4 -79 -4t-93 20q-128 54 -128 211q0 84 46 268t46 254q0 105 -74 105t-132 -117q-17 -33 -28 -72l-139 -657h-295l217 1024h295l-22 -106q100 114 239 114q98 0 163 -54t65 -160t-34 -240 l-49 -198q-16 -65 -16 -106z" unicode="n"/>
<glyph glyph-name="o" horiz-adv-x="899" unicode="o" d="M618 602q-55 14 -55 91t64 106q-5 65 -21 92t-64 27q-94 0 -180 -208t-86 -368q0 -100 18 -126t38 -33t54 -7q70 0 139 123t93 303zM1151 778q-124 -130 -363 -170q-24 -280 -161 -448t-328 -168q-236 0 -304 174q-24 61 -24 135q1 75 13 151t39 157q61 183 177 297 q138 136 332 136q263 0 263 -327v-2q10 -2 34 -2q55 0 141 35t163 88z"/>
<glyph glyph-name="p" horiz-adv-x="958" unicode="p" d="M627 717q0 170 -103 170q-36 0 -74 -25t-67 -76l-121 -573q18 -47 88 -47t124 58q107 114 138 326q15 94 15 167zM229 61l-106 -499l-309 -74l342 1612h295l-33 -154q102 88 239 88q177 0 231 -170q19 -62 19 -142q1 -80 -9 -162q-10 -80 -33 -160t-61 -155 q-38 -73 -93 -131q-57 -58 -133 -92t-190 -34t-159 73z"/>
<glyph glyph-name="q" horiz-adv-x="995" unicode="q" d="M276 335q0 -149 102 -149q44 0 90 38t71 108l108 506q-5 18 -22 44t-72 25q-55 0 -109 -61q-130 -147 -163 -422q-5 -42 -5 -89zM489 100q-105 -112 -243 -112q-186 0 -250 175q-23 63 -23 143t14 162q14 80 43 160q64 176 183 291t287 115q88 0 127 -30t39 -74v-4l20 98 h295l-311 -1462l-310 -74z"/>
<glyph glyph-name="r" horiz-adv-x="770" unicode="r" d="M-78 0l217 1024h295l-26 -127q50 45 112 86t134 41t107 -47q36 -47 36 -90q1 -74 -39 -120t-96 -46q-56 -1 -74 25t-22 52t-10 42t-28 16q-42 0 -74 -20t-73 -58l-164 -778h-295z"/>
<glyph glyph-name="s" horiz-adv-x="782" unicode="s" d="M150 150q196 0 196 190q0 53 -8 125l-12 117q-11 112 -19 243q-52 -168 -166 -387q47 -22 47 -66t-24 -74q-24 -32 -66 -32t-55 27q0 -143 107 -143zM868 367q-127 -148 -313 -256q-116 -123 -322 -123q-143 0 -221 78t-78 168q0 88 34 137t75 69q144 258 252 607l303 40 q8 -192 16 -321l25 -325q4 -48 4 -95t-8 -82q90 52 147 103h86z"/>
<glyph glyph-name="t" horiz-adv-x="547" unicode="t" d="M633 367q-132 -379 -441 -379q-81 0 -145 58q-63 58 -63 187q0 58 16 134l123 575h-68l17 82h67l62 283l303 41l-70 -324h123l-16 -82h-123l-131 -614q-8 -37 -8 -73q0 -69 83 -69q60 0 112 52t73 129h86z"/>
<glyph glyph-name="u" d="M1120 367q-130 -379 -411 -379q-183 0 -203 194q-120 -194 -303 -194q-92 0 -156 58q-63 58 -63 187q0 58 16 134l139 657h295l-147 -696q-6 -32 -6 -58q0 -84 61 -84q108 0 164 181l139 657h295l-147 -696q-9 -35 -9 -72q0 -70 84 -70q115 0 166 181h86z" unicode="u"/>
<glyph glyph-name="v" horiz-adv-x="848" unicode="v" d="M276 254q0 -68 70 -68q95 0 181 128q116 171 161 428q12 72 12 128q-5 -11 -29 -15l-21 -4q-9 -1 -15 -1q-36 0 -55 34t-19 76q0 41 31 73t82 32q81 1 112 -51t31 -130t-14 -178q-14 -98 -44 -198q-67 -224 -199 -372t-327 -148q-115 0 -183 59t-68 182q0 51 10 99 l147 696h295l-147 -696q-11 -49 -11 -74z"/>
<glyph glyph-name="w" horiz-adv-x="1354" unicode="w" d="M281 276q0 -90 61 -90q108 0 164 181l139 657h295l-147 -696q-11 -49 -11 -74q0 -68 70 -68q95 0 181 128q116 171 161 428q12 72 12 128q-5 -11 -29 -15l-21 -4q-9 -1 -15 -1q-36 0 -55 34t-19 76q1 42 31 74t82 31q81 1 112 -51t31 -130t-14 -178q-14 -98 -44 -198 q-67 -225 -188 -360q-143 -160 -345 -160t-238 172q-114 -172 -291 -172q-92 0 -156 58q-63 58 -63 187q0 58 16 134l139 657h295l-147 -696q-6 -26 -6 -52z"/>
<glyph glyph-name="x" horiz-adv-x="1069" unicode="x" d="M866 926q-96 0 -96 114q0 54 42 78t84 23q66 0 97 -56q31 -55 31 -117t-18 -108q-33 -88 -142 -212l-125 -140l19 -143q12 -97 35 -129t44 -41t48 -9q59 0 110 51t74 130h86q-76 -214 -205 -309q-95 -70 -205 -70h-8q-193 0 -250 356l-282 -344h-148l414 467l-33 229 q-18 104 -34 137t-45 33q-65 0 -143 -130t-130 -369h-86q49 214 91 306t71 141q64 104 143 162t160 58t121 -24t74 -70q32 -48 45 -149l18 -156q171 191 178 295q-17 -4 -35 -4z"/>
<glyph glyph-name="y" horiz-adv-x="995" unicode="y" d="M403 -111q-200 -72 -200 -174q0 -41 39 -61q13 -6 38 -6t58 44t53 138zM281 276q1 -90 59 -90t99 48q40 49 63 120l143 670h295l-203 -950q93 30 153 94t105 199h86q-78 -264 -264 -348q-51 -23 -98 -35l-31 -148q-39 -197 -156 -284q-86 -64 -197 -64t-178 49t-67 157 q0 187 334 298l25 110q-106 -114 -246 -114q-92 0 -156 58q-63 58 -63 187q0 58 16 134l139 657h295l-147 -696q-6 -26 -6 -52z"/>
<glyph glyph-name="z" horiz-adv-x="877" unicode="z" d="M702 317q91 0 91 -98q0 -79 -70 -149t-180 -70h-543l522 913h-114q-48 0 -80 -5t-33 -27q-1 -5 3 -6t12 -7t7 -48t-35 -68t-64 -25q-49 0 -77 24t-28 61q0 80 68 146t169 66h527l-502 -866q13 -1 31 -3l39 -5q46 -5 84 -5q91 0 98 41q-39 4 -39 43q0 30 28 59t86 29z"/>
<glyph glyph-name="braceleft" horiz-adv-x="721" unicode="{" d="M197 -254q0 -164 174 -164l-19 -92h-18q-103 0 -149 14t-85 72t-39 134t30 152q30 77 70 158l80 166q66 140 66 217q0 64 -84 64q-26 0 -65 -6l24 117q35 -7 74 -7q75 0 108 77q19 49 19 151l-14 325q0 142 72 264q87 148 255 148h88l-18 -102q-107 0 -138 -18t-48 -36 q-56 -62 -74 -130t-21 -152l13 -350q-7 -165 -82 -228q24 -28 24 -84t-28 -124l-101 -220q-114 -234 -114 -346z"/>
<glyph glyph-name="bar" horiz-adv-x="1090" unicode="|" d="M449 -512v2050h190v-2050h-190z"/>
<glyph glyph-name="braceright" horiz-adv-x="721" unicode="}" d="M463 227l14 -325q0 -142 -72 -264q-87 -148 -255 -148h-89l19 102q104 0 136 18q138 78 144 318l-12 351q7 164 82 227q-24 28 -24 86t43 156q43 100 83 184t79 178q38 94 38 170q0 164 -174 164l19 92h18q101 0 148 -14q48 -14 86 -70q38 -58 38 -122t-14 -116 q-25 -91 -86 -208l-54 -110q-91 -192 -91 -273q0 -64 84 -64q24 0 65 6l-24 -116q-38 6 -76 6q-73 0 -106 -77q-19 -49 -19 -151z"/>
<glyph glyph-name="asciitilde" horiz-adv-x="883" unicode="~" d="M780 1325q82 0 129 47l13 -2q-19 -76 -118 -140q-100 -65 -190 -65q-91 0 -167 26t-116 38t-83 12q-77 0 -135 -53l-13 4q104 201 342 201q82 1 150 -23t106 -34t82 -11z"/>
<glyph glyph-name="exclamdown" horiz-adv-x="449" unicode="¡" d="M168 647q-47 47 -47 114q1 67 47 116t114 49t116 -48t48 -117t-48 -115t-116 -46q-67 0 -114 47zM-125 -508l266 961h174l-145 -961h-295z"/>
<glyph glyph-name="cent" horiz-adv-x="825" unicode="¢" d="M467 1094q-128 -103 -174 -314q-14 -64 -14 -108q0 -148 75 -203zM424 438q10 -2 31 -2q82 0 130 32q87 59 140 107q-23 -129 -101 -201t-231 -77l-78 -352h-55l64 354q-114 17 -188 107t-73 241q-1 219 113 381t313 191l46 251h118l-55 -249q126 -7 168 -77 q16 -26 16 -62t-10 -68h-117q11 39 11 57q0 70 -76 70h-10z"/>
<glyph glyph-name="sterling" horiz-adv-x="952" unicode="£" d="M641 832q41 -13 107 -13t112 47l12 -2q-17 -75 -116 -140t-213 -65h-33l-115 -473q37 5 71 6t69 2q85 4 161 30t178 100q-16 -148 -72 -236t-140 -88h-605l176 733l-34 2q-77 0 -136 -53l-12 4q70 138 215 182l148 605l307 63l-164 -678z"/>
<glyph glyph-name="currency" horiz-adv-x="1024" unicode="¤" d="M723 709q1 86 -59 145t-146 59t-145 -59q-60 -58 -60 -144t59 -147q60 -59 146 -59t146 60t59 145zM332 967q84 61 186 61t182 -59l115 114l74 -73l-113 -113q62 -85 62 -187t-62 -188l113 -112l-74 -74l-113 113q-78 -60 -182 -60t-190 62l-115 -115l-74 74l115 114 q-59 80 -59 184t59 183l-117 117l78 73z"/>
<glyph glyph-name="yen" horiz-adv-x="971" unicode="¥" d="M569 291l-61 -291h-328l62 291h-203l29 102h196l29 133h-203l29 103h196v2l-229 905h336l180 -739l307 739h135l-401 -905v-2h268l-28 -103h-262l-29 -133h268l-29 -102h-262z"/>
<glyph glyph-name="brokenbar" horiz-adv-x="1090" unicode="¦" d="M449 616v922h190v-922h-190zM449 -512v967h190v-967h-190z"/>
<glyph glyph-name="section" horiz-adv-x="1110" unicode="§" d="M428 995q-39 -24 -39 -69q0 -44 25 -82q26 -38 64 -75t86 -77q185 -154 222 -317q39 49 39 133q0 136 -138 248l-147 117q-66 51 -112 122zM799 272q1 -176 -117 -280t-328 -103q-256 0 -321 165q-17 44 -17 104q0 111 56 182q58 70 130 70t108 -34t65 -69 q-134 -12 -157 -89q-9 -26 -9 -86t38 -100t122 -40q172 0 172 198q-3 158 -118 276l-134 124q-117 104 -117 214t62 184t151 108q-11 46 -11 110t40 134q74 129 238 174q88 23 168 23t151 -31q104 -44 104 -161t-78 -157q-25 -12 -64 -12t-69 32q34 20 54 60t20 72 q0 58 -30 89t-78 31q-89 0 -144 -66t-55 -153q0 -117 127 -221q36 -30 75 -59q93 -69 148 -147t55 -198t-63 -216q-63 -98 -174 -121v-7z"/>
<glyph glyph-name="dieresis" horiz-adv-x="803" unicode="¨" d="M696 1209q-38 -35 -76 -35q-65 0 -101 35t-36 88t36 89t88 37q52 -1 89 -37t37 -88t-37 -89zM328 1209q-38 -35 -76 -35q-66 0 -102 36t-35 87q0 52 35 89q36 37 88 37q52 -1 90 -37q37 -36 37 -88t-37 -89z"/>
<glyph glyph-name="copyright" horiz-adv-x="1202" unicode="©" d="M1008 678q0 184 -118 310t-288 126q-168 0 -286 -126t-117 -310q-1 -184 117 -310t287 -126t287 126t118 310zM104 678q0 220 146 372t350 152t350 -152t146 -370q0 -216 -146 -370t-350 -154t-350 152t-146 370zM862 512q-44 -66 -110 -102t-135 -37q-129 -1 -217 93 t-89 223q1 129 89 215t214 87q98 -5 166 -59t88 -135l-96 -37l-14 40q-31 85 -140 85q-78 0 -136 -46q-58 -47 -58 -141t57 -156t137 -63q48 1 90 25t64 67z"/>
<glyph glyph-name="ordfeminine" horiz-adv-x="707" unicode="ª" d="M467 1432q-23 20 -58 20q-67 0 -114 -103t-47 -223q0 -49 24 -63t45 -14q37 0 74 53zM479 1485l6 31h170l-86 -377q-2 -11 -4 -19t-2 -18q0 -41 43 -41h14q9 0 17 4q-26 -73 -59 -87t-64 -15q-94 0 -119 81q-72 -88 -173 -88q-134 0 -134 164q0 47 15 121q15 75 51 135 t96 98t126 39q66 0 103 -28z"/>
<glyph glyph-name="guillemotleft" horiz-adv-x="1206" unicode="«" d="M471 487l18 84l629 308l-20 -113l-494 -246l397 -196l-24 -117zM41 487l18 84l629 308l-20 -113l-494 -246l397 -196l-24 -117z"/>
<glyph glyph-name="logicalnot" horiz-adv-x="909" unicode="¬" d="M481 104l72 351h-514l37 161h741l-104 -512h-232z"/>
<glyph glyph-name="uni00AD" horiz-adv-x="594" unicode="­" d="M39 455l37 161h409l-34 -161h-412z"/>
<glyph glyph-name="registered" horiz-adv-x="1133" unicode="®" d="M561 723q146 0 146 90q0 71 -99 87q-26 5 -51 5h-102v-182h106zM717 389l-127 256h-135v-252h-95l2 596h193q109 0 177 -44t69 -128q1 -57 -33 -99t-88 -59l133 -256zM973 684q-1 184 -119 310t-286 126t-286 -126t-118 -310t118 -310t286 -126q169 0 287 126t118 310z M215 314q-145 152 -145 370t144 371t350 153t351 -152q146 -152 146 -370q0 -216 -146 -370q-147 -154 -351 -154t-349 152z"/>
<glyph glyph-name="degree" horiz-adv-x="643" unicode="°" d="M299 1288q-26 -38 -51 -108t-25 -164q0 -92 10 -133t48 -41q75 0 123 118t49 277q1 55 -9 92t-43 37q-50 0 -102 -78zM266 766q-106 0 -148 57t-42 161q0 202 90 328t242 126q90 0 128 -60t39 -190q-1 -130 -83 -276t-226 -146z"/>
<glyph glyph-name="plusminus" horiz-adv-x="1092" unicode="±" d="M63 139l37 162h752l-35 -162h-754zM664 633l-56 -252h-231l55 252h-262l49 229h262l56 250h231l-55 -250h260l-47 -229h-262z"/>
<glyph glyph-name="twosuperior" horiz-adv-x="614" unicode="²" d="M229 1404q0 -82 45 -93q-45 -39 -86 -39q-42 0 -66 26t-24 64q0 74 60 123t186 49q225 0 225 -176q0 -92 -51 -161t-124 -129l-141 -110q-71 -51 -108 -106h9q56 0 114 -10t116 -11q58 0 78 15q45 33 77 63q0 -123 -16 -155q-30 -60 -126 -60q-64 0 -149 20t-120 21 q-35 0 -48 -4q-14 -4 -26 -9t-24 -11t-20 -9q-4 20 -4 58t29 90q29 50 73 98t94 94t94 98q101 120 101 244q0 62 -45 84q-13 7 -34 7q-49 0 -69 -22t-20 -49z"/>
<glyph glyph-name="threesuperior" horiz-adv-x="647" unicode="³" d="M160 858q0 -88 95 -88q71 0 113 58t42 127t-36 129t-118 85q94 24 148 89t55 116q0 101 -76 101q-107 0 -107 -89q0 -40 17 -56t29 -19q-47 -39 -87 -39t-65 26t-25 64q0 72 66 122t180 50q115 0 167 -48t52 -108q0 -135 -161 -211q79 -22 113 -71t34 -104 q0 -108 -90 -200t-215 -92q-172 0 -237 84q-27 35 -27 104q-1 69 35 114t112 45t90 -56q-93 -10 -102 -87q-2 -22 -2 -46z"/>
<glyph glyph-name="acute" horiz-adv-x="647" unicode="´" d="M246 1149l186 387h215l-248 -387h-153z"/>
<glyph glyph-name="mu" d="M281 276q0 -90 61 -90q108 0 164 181l139 657h295l-147 -696q-9 -35 -9 -72q0 -70 84 -70q115 0 166 181h86q-128 -367 -411 -367q-181 0 -201 184q-114 -184 -293 -184l-55 -266l-310 -74l289 1364h295l-147 -696q-6 -26 -6 -52z" unicode="µ"/>
<glyph glyph-name="paragraph" horiz-adv-x="1110" unicode="¶" d="M852 1167q12 58 12 103q0 84 -47 127l-147 -703h12q38 0 72 8zM569 -166l166 778q-35 -13 -88 -22l-158 -756h-192l158 756q-149 27 -229 146q-79 118 -79 270q0 205 136 366q136 162 387 162t338 -182q30 -64 30 -142q0 -77 -16 -161l-260 -1215h-193z"/>
<glyph glyph-name="periodcentered" horiz-adv-x="889" unicode="·" d="M641 547q0 -82 -59 -139q-58 -58 -140 -58t-139 58q-57 57 -57 138q0 82 57 140q57 59 139 59t140 -59q59 -58 59 -139z"/>
<glyph glyph-name="cedilla" horiz-adv-x="465" unicode="¸" d="M0 -389q38 65 76 65q54 0 92 -28t65 -27t45 27t17 57t-19 53t-68 23q-50 0 -99 -25l108 303l72 -47l-60 -147q64 16 109 16q127 0 127 -103q-1 -104 -75 -164t-161 -60t-123 12t-60 24z"/>
<glyph glyph-name="onesuperior" horiz-adv-x="444" unicode="¹" d="M45 707l158 690h-113l14 51q108 0 178 28t124 58l-189 -827h-172z"/>
<glyph glyph-name="ordmasculine" horiz-adv-x="674" unicode="º" d="M244 1147q0 -84 84 -84q92 0 121 221q-31 7 -31 41t25 61t51 27t34 -8t9 -31q28 18 49 45l18 21l12 -23q-32 -89 -79 -117q-9 -158 -91 -252t-176 -94t-139 42t-45 142q0 188 89 288t222 100q41 0 77 -14t36 -37t-18 -34t-35 -18q-17 39 -50 39t-56 -17t-41 -45 q-34 -54 -50 -126t-16 -127z"/>
<glyph glyph-name="guillemotright" horiz-adv-x="1200" unicode="»" d="M485 207l29 117l492 196l-398 246l19 113l503 -308l-22 -110zM31 207l28 117l492 196l-397 246l18 113l504 -308l-23 -110z"/>
<glyph glyph-name="onequarter" horiz-adv-x="1411" unicode="¼" d="M143 461l158 690h-113l14 51q108 0 178 28t124 58l-189 -827h-172zM985 2l70 305h-289q15 45 44 99q128 241 128 358q0 35 -8 67q52 1 92 -25t41 -79q0 -108 -122 -263q-30 -38 -52 -77h184l96 422l177 22l-103 -444h78l-25 -80h-71l-70 -305h-170zM285 -338l540 1874 h148l-541 -1874h-147z"/>
<glyph glyph-name="onehalf" horiz-adv-x="1382" unicode="½" d="M972 708q0 -82 45 -93q-45 -39 -86 -39t-65 26t-25 64q0 74 60 123t186 49q225 0 225 -176q0 -92 -51 -161t-124 -129l-141 -110q-71 -51 -108 -106h9q57 0 115 -10t114 -11q58 0 80 15q44 33 76 63q0 -123 -16 -155q-30 -60 -126 -60q-64 0 -148 20t-120 21 q-36 0 -56 -6t-37 -15t-26 -12q-4 20 -4 58t29 90q28 50 72 98t94 94q196 180 196 342q0 62 -45 84q-13 7 -35 7q-48 0 -68 -22t-20 -49zM143 461l158 690h-113l14 51q108 0 178 28t124 58l-189 -827h-172zM274 -338l541 1874h148l-541 -1874h-148z"/>
<glyph glyph-name="threequarters" horiz-adv-x="1677" unicode="¾" d="M258 612q0 -88 95 -88q71 0 113 58t42 127t-36 129t-118 85q94 24 148 89t55 116q0 101 -76 101q-107 0 -107 -89q0 -40 17 -56t29 -19q-47 -39 -87 -39t-65 26t-25 64q0 72 66 122t180 50q115 0 167 -48t52 -108q0 -135 -161 -211q79 -22 113 -71t34 -104 q0 -108 -90 -200t-215 -92q-172 0 -237 84q-27 35 -27 104q-1 69 35 114t112 45t90 -56q-93 -10 -102 -87q-2 -22 -2 -46zM1229 2l69 305h-288q15 45 44 99l56 114q72 148 72 244q0 35 -8 67q52 1 92 -25t41 -79q0 -108 -122 -263q-30 -38 -52 -77h184l96 422l176 22 l-102 -444h78l-25 -80h-72l-69 -305h-170zM522 -338l541 1874h147l-540 -1874h-148z"/>
<glyph glyph-name="questiondown" horiz-adv-x="899" unicode="¿" d="M799 762q0 -70 -49 -116t-116 -46t-114 47t-47 115v2q1 66 47 115t114 49t116 -48t49 -116v-2zM479 -90q54 86 150 86q59 0 107 -44t48 -112q0 -139 -98 -233q-119 -113 -332 -113q-262 0 -314 153q-15 45 -15 115t27 138q48 120 170 221l110 93q135 117 186 239h135 q0 -120 -97 -243q-41 -53 -89 -103t-89 -104q-97 -126 -97 -244q0 -154 115 -154q61 1 111 49t50 120t-42 114q-15 16 -36 22z"/>
<glyph glyph-name="Agrave" horiz-adv-x="1368" unicode="À" d="M1016 1661l-121 387h215l60 -387h-154zM727 905q143 -28 250 -71l119 557q-176 -96 -369 -486zM438 70q-20 -108 -20 -186t28 -117q-121 0 -170 25q-104 52 -104 192q0 212 178 596q56 120 123 237q-95 -5 -157 -29t-83 -77q9 -1 18 -21t9 -50t-34 -52t-70 -21 q-66 -1 -102 31t-36 86q0 106 119 180q121 74 299 74q41 0 107 -6q167 260 353 432t359 172q104 0 162 -29l-321 -1507h-295l157 743q-136 62 -274 74q-184 -407 -246 -747z"/>
<glyph glyph-name="Aacute" horiz-adv-x="1368" unicode="Á" d="M996 1661l186 387h215l-248 -387h-153zM727 905q143 -28 250 -71l119 557q-176 -96 -369 -486zM438 70q-20 -108 -20 -186t28 -117q-121 0 -170 25q-104 52 -104 192q0 212 178 596q56 120 123 237q-95 -5 -157 -29t-83 -77q9 -1 18 -21t9 -50t-34 -52t-70 -21 q-66 -1 -102 31t-36 86q0 106 119 180q121 74 299 74q41 0 107 -6q167 260 353 432t359 172q104 0 162 -29l-321 -1507h-295l157 743q-136 62 -274 74q-184 -407 -246 -747z"/>
<glyph glyph-name="Acircumflex" horiz-adv-x="1368" unicode="Â" d="M1369 1661l-123 164l-322 -164h-90l434 387h43l123 -387h-65zM727 905q143 -28 250 -71l119 557q-176 -96 -369 -486zM438 70q-20 -108 -20 -186t28 -117q-121 0 -170 25q-104 52 -104 192q0 212 178 596q56 120 123 237q-95 -5 -157 -29t-83 -77q9 -1 18 -21t9 -50 t-34 -52t-70 -21q-66 -1 -102 31t-36 86q0 106 119 180q121 74 299 74q41 0 107 -6q167 260 353 432t359 172q104 0 162 -29l-321 -1507h-295l157 743q-136 62 -274 74q-184 -407 -246 -747z"/>
<glyph glyph-name="Atilde" horiz-adv-x="1368" unicode="Ã" d="M1647 1884l12 -2q-17 -74 -117 -140t-213 -65q-69 0 -145 26t-116 38t-83 12q-77 0 -135 -53l-12 4q99 201 342 201q78 1 148 -23t108 -34t100 -11q62 0 111 47zM727 905q143 -28 250 -71l119 557q-176 -96 -369 -486zM438 70q-20 -108 -20 -186t28 -117q-121 0 -170 25 q-104 52 -104 192q0 212 178 596q56 120 123 237q-95 -5 -157 -29t-83 -77q9 -1 18 -21t9 -50t-34 -52t-70 -21q-66 -1 -102 31t-36 86q0 106 119 180q121 74 299 74q41 0 107 -6q167 260 353 432t359 172q104 0 162 -29l-321 -1507h-295l157 743q-136 62 -274 74 q-184 -407 -246 -747z"/>
<glyph glyph-name="Adieresis" horiz-adv-x="1368" unicode="Ä" d="M1462 1721q-38 -35 -76 -35q-65 0 -101 35t-36 88t36 89t88 37q52 -1 89 -37t37 -88t-37 -89zM1094 1721q-38 -35 -76 -35q-66 0 -102 36t-35 87q0 52 35 89q36 37 88 37q52 -1 90 -37q37 -36 37 -88t-37 -89zM727 905q143 -28 250 -71l119 557q-176 -96 -369 -486z M438 70q-20 -108 -20 -186t28 -117q-121 0 -170 25q-104 52 -104 192q0 212 178 596q56 120 123 237q-95 -5 -157 -29t-83 -77q9 -1 18 -21t9 -50t-34 -52t-70 -21q-66 -1 -102 31t-36 86q0 106 119 180q121 74 299 74q41 0 107 -6q167 260 353 432t359 172q104 0 162 -29 l-321 -1507h-295l157 743q-136 62 -274 74q-184 -407 -246 -747z"/>
<glyph glyph-name="Aring" horiz-adv-x="1368" unicode="Å" d="M1145 1714q94 0 94 94q0 67 -30 88q-14 9 -38 9q-52 0 -74 -38t-22 -77q0 -76 70 -76zM993 1770q0 129 94 183q33 19 95 19t97 -46q36 -46 36 -113q-1 -67 -41 -119t-122 -52t-120 42q-39 42 -39 86zM727 905q143 -28 250 -71l119 557q-176 -96 -369 -486zM438 70 q-20 -108 -20 -186t28 -117q-121 0 -170 25q-104 52 -104 192q0 212 178 596q56 120 123 237q-95 -5 -157 -29t-83 -77q9 -1 18 -21t9 -50t-34 -52t-70 -21q-66 -1 -102 31t-36 86q0 106 119 180q121 74 299 74q41 0 107 -6q167 260 353 432t359 172q104 0 162 -29 l-321 -1507h-295l157 743q-136 62 -274 74q-184 -407 -246 -747z"/>
<glyph glyph-name="AE" horiz-adv-x="1565" unicode="Æ" d="M723 903q131 -24 254 -69l119 557q-184 -102 -373 -488zM958 743q-148 66 -276 74q-180 -394 -244 -744q-20 -109 -20 -169t4 -80t10 -31q6 -10 10 -14t4 -10q-139 5 -183 31q-91 53 -91 198q0 204 178 584q56 118 123 235q-93 -7 -155 -29t-85 -77q9 -1 18 -21t9 -48 t-30 -52t-84 -23q-56 0 -92 30t-36 88q0 105 121 176t279 71q53 0 121 -6q258 421 530 563q94 49 184 49q42 0 85 -6l88 -14q124 -21 196 -21q123 0 240 39l-23 -74q-46 -151 -197 -151q-78 0 -136 21l-117 44l-111 -518h317l-41 -151h-309l-104 -490h458l-43 -217h-755z "/>
<glyph glyph-name="Ccedilla" horiz-adv-x="1018" unicode="Ç" d="M1096 1262q0 -189 -144 -189q-72 0 -116 53q38 20 66 75t28 109t-28 92t-92 38q-62 0 -116 -42t-100 -114q-95 -144 -155 -368t-60 -406q-1 -182 53 -264t184 -82q256 0 408 205l47 -21q-98 -248 -373 -344q-74 -26 -151 -34l-42 -105q64 16 109 16q127 0 127 -103 q-1 -104 -75 -164t-161 -60t-123 12t-60 24l-46 21q38 65 76 65q54 0 92 -28t65 -27t45 27t17 57t-19 53t-68 23q-50 0 -99 -25l75 212q-210 4 -316 118t-105 371q0 257 85 513q99 302 292 452q148 114 338 114q238 0 315 -149q27 -52 27 -125z"/>
<glyph glyph-name="Egrave" horiz-adv-x="940" unicode="È" d="M637 1661l-121 387h215l60 -387h-154zM393 854q-125 91 -125 251q0 159 130 297t319 138q127 0 210 -66t83 -174t-45 -168t-104 -61q-59 0 -99 55q36 14 63 68t27 114t-36 85q-37 26 -80 26q-86 -1 -146 -89t-60 -200q0 -154 112 -232q40 -28 95 -42q-156 -34 -261 -187 t-105 -302q0 -87 45 -147t148 -60q104 0 214 55t166 154l47 -21q-81 -178 -247 -282t-352 -103q-188 -1 -283 103t-95 266t105 321t274 201z"/>
<glyph glyph-name="Eacute" horiz-adv-x="940" unicode="É" d="M676 1661l186 387h215l-248 -387h-153zM393 854q-125 91 -125 251q0 159 130 297t319 138q127 0 210 -66t83 -174t-45 -168t-104 -61q-59 0 -99 55q36 14 63 68t27 114t-36 85q-37 26 -80 26q-86 -1 -146 -89t-60 -200q0 -154 112 -232q40 -28 95 -42q-156 -34 -261 -187 t-105 -302q0 -87 45 -147t148 -60q104 0 214 55t166 154l47 -21q-81 -178 -247 -282t-352 -103q-188 -1 -283 103t-95 266t105 321t274 201z"/>
<glyph glyph-name="Ecircumflex" horiz-adv-x="940" unicode="Ê" d="M949 1661l-123 164l-322 -164h-90l434 387h43l123 -387h-65zM393 854q-125 91 -125 251q0 159 130 297t319 138q127 0 210 -66t83 -174t-45 -168t-104 -61q-59 0 -99 55q36 14 63 68t27 114t-36 85q-37 26 -80 26q-86 -1 -146 -89t-60 -200q0 -154 112 -232 q40 -28 95 -42q-156 -34 -261 -187t-105 -302q0 -87 45 -147t148 -60q104 0 214 55t166 154l47 -21q-81 -178 -247 -282t-352 -103q-188 -1 -283 103t-95 266t105 321t274 201z"/>
<glyph glyph-name="Edieresis" horiz-adv-x="940" unicode="Ë" d="M1069 1721q-38 -35 -77 -35q-64 0 -100 35t-36 88t36 89t88 37q52 -1 89 -37t37 -88t-37 -89zM701 1721q-38 -35 -77 -35q-66 0 -101 36t-35 87q0 52 35 89q37 37 89 37q52 -1 89 -37t37 -88t-37 -89zM393 854q-125 91 -125 251q0 159 130 297t319 138q127 0 210 -66 t83 -174t-45 -168t-104 -61q-59 0 -99 55q36 14 63 68t27 114t-36 85q-37 26 -80 26q-86 -1 -146 -89t-60 -200q0 -154 112 -232q40 -28 95 -42q-156 -34 -261 -187t-105 -302q0 -87 45 -147t148 -60q104 0 214 55t166 154l47 -21q-81 -178 -247 -282t-352 -103 q-188 -1 -283 103t-95 266t105 321t274 201z"/>
<glyph glyph-name="Igrave" horiz-adv-x="768" unicode="Ì" d="M471 1661l-121 387h215l60 -387h-154zM489 1391q-286 -120 -286 -447q0 -83 23 -125q5 -8 5 -14q-164 0 -205 105q-14 38 -14 94q0 102 64 198t167 170q233 164 488 164q42 0 82 -4l-326 -1532h-294z"/>
<glyph glyph-name="Iacute" horiz-adv-x="768" unicode="Í" d="M551 1661l186 387h215l-248 -387h-153zM489 1391q-286 -120 -286 -447q0 -83 23 -125q5 -8 5 -14q-164 0 -205 105q-14 38 -14 94q0 102 64 198t167 170q233 164 488 164q42 0 82 -4l-326 -1532h-294z"/>
<glyph glyph-name="Icircumflex" horiz-adv-x="768" unicode="Î" d="M844 1661l-123 164l-322 -164h-90l434 387h43l123 -387h-65zM489 1391q-286 -120 -286 -447q0 -83 23 -125q5 -8 5 -14q-164 0 -205 105q-14 38 -14 94q0 102 64 198t167 170q233 164 488 164q42 0 82 -4l-326 -1532h-294z"/>
<glyph glyph-name="Idieresis" horiz-adv-x="768" unicode="Ï" d="M923 1721q-38 -35 -77 -35q-64 0 -100 35t-36 88t36 89t88 37q52 -1 89 -37t37 -88t-37 -89zM555 1721q-38 -35 -77 -35q-66 0 -101 36t-35 87q0 52 35 89q37 37 89 37q52 -1 89 -37t37 -88t-37 -89zM489 1391q-286 -120 -286 -447q0 -83 23 -125q5 -8 5 -14 q-164 0 -205 105q-14 38 -14 94q0 102 64 198t167 170q233 164 488 164q42 0 82 -4l-326 -1532h-294z"/>
<glyph glyph-name="Eth" horiz-adv-x="1358" unicode="Ð" d="M1275 602q-97 -379 -307 -546q-102 -83 -220 -83t-244 109l-17 -82h-294l151 707h-80l41 151h72l94 445l303 40l-104 -485h161l-40 -151h-154l-109 -512q56 -41 117 -41q92 0 165 82q140 157 200 500q28 155 28 278t-11 198t-42 126q-63 104 -229 104q-252 0 -402 -134 q-151 -134 -151 -364q0 -83 23 -125q5 -8 5 -14q-164 0 -205 105q-14 38 -14 94q0 102 64 198t167 170q233 164 488 164q590 0 590 -553q0 -201 -46 -381z"/>
<glyph glyph-name="Ntilde" horiz-adv-x="1405" unicode="Ñ" d="M1440 1884l12 -2q-18 -74 -118 -140t-212 -65q-69 0 -145 26t-116 38t-83 12q-77 0 -135 -53l-12 4q99 201 342 201q79 1 149 -23t107 -34q38 -10 100 -11q62 0 111 47zM889 0l-174 1071l-228 -1071h-294l294 1391q-136 -57 -210 -169t-74 -278q0 -83 23 -125q5 -8 5 -14 q-164 0 -205 105q-14 38 -14 96t18 119q18 62 54 121q76 130 208 210t300 80q48 0 96 -3t94 -26l162 -1085l223 1110h295l-325 -1532h-248z"/>
<glyph glyph-name="Ograve" horiz-adv-x="1348" unicode="Ò" d="M719 1661l-121 387h215l60 -387h-154zM858 1536q485 0 485 -524q0 -353 -177 -660q-126 -221 -336 -316q-108 -48 -216 -48t-174 22q-219 74 -219 389q0 211 79 449q126 384 346 484q60 28 126 28t111 -17q-89 -53 -176 -227q-126 -249 -169 -552q-14 -94 -14 -173 q0 -237 119 -237h2q99 0 198 144t163 364t65 416q0 196 -54 280t-208 84q-246 0 -418 -146t-172 -381q1 -59 11 -79t10 -31q-100 0 -154 39t-53 139q0 100 68 201q145 212 447 306q150 46 310 46z"/>
<glyph glyph-name="Oacute" horiz-adv-x="1348" unicode="Ó" d="M813 1661l186 387h215l-248 -387h-153zM858 1536q485 0 485 -524q0 -353 -177 -660q-126 -221 -336 -316q-108 -48 -216 -48t-174 22q-219 74 -219 389q0 211 79 449q126 384 346 484q60 28 126 28t111 -17q-89 -53 -176 -227q-126 -249 -169 -552q-14 -94 -14 -173 q0 -237 119 -237h2q99 0 198 144t163 364t65 416q0 196 -54 280t-208 84q-246 0 -418 -146t-172 -381q1 -59 11 -79t10 -31q-100 0 -154 39t-53 139q0 100 68 201q145 212 447 306q150 46 310 46z"/>
<glyph glyph-name="Ocircumflex" horiz-adv-x="1348" unicode="Ô" d="M1092 1661l-123 164l-322 -164h-90l434 387h43l123 -387h-65zM858 1536q485 0 485 -524q0 -353 -177 -660q-126 -221 -336 -316q-108 -48 -216 -48t-174 22q-219 74 -219 389q0 211 79 449q126 384 346 484q60 28 126 28t111 -17q-89 -53 -176 -227q-126 -249 -169 -552 q-14 -94 -14 -173q0 -237 119 -237h2q99 0 198 144t163 364t65 416q0 196 -54 280t-208 84q-246 0 -418 -146t-172 -381q1 -59 11 -79t10 -31q-100 0 -154 39t-53 139q0 100 68 201q145 212 447 306q150 46 310 46z"/>
<glyph glyph-name="Otilde" horiz-adv-x="1348" unicode="Õ" d="M1370 1884l12 -2q-18 -74 -118 -140t-212 -65q-69 0 -145 26t-116 38t-83 12q-77 0 -135 -53l-12 4q99 201 342 201q79 1 149 -23t107 -34q38 -10 100 -11q62 0 111 47zM858 1536q485 0 485 -524q0 -353 -177 -660q-126 -221 -336 -316q-108 -48 -216 -48t-174 22 q-219 74 -219 389q0 211 79 449q126 384 346 484q60 28 126 28t111 -17q-89 -53 -176 -227q-126 -249 -169 -552q-14 -94 -14 -173q0 -237 119 -237h2q99 0 198 144t163 364t65 416q0 196 -54 280t-208 84q-246 0 -418 -146t-172 -381q1 -59 11 -79t10 -31q-100 0 -154 39 t-53 139q0 100 68 201q145 212 447 306q150 46 310 46z"/>
<glyph glyph-name="Odieresis" horiz-adv-x="1348" unicode="Ö" d="M1171 1721q-38 -35 -77 -35q-64 0 -100 35t-36 88t36 89t88 37q52 -1 89 -37t37 -88t-37 -89zM803 1721q-38 -35 -77 -35q-66 0 -101 36t-35 87q0 52 35 89q37 37 89 37q52 -1 89 -37t37 -88t-37 -89zM858 1536q485 0 485 -524q0 -353 -177 -660q-126 -221 -336 -316 q-108 -48 -216 -48t-174 22q-219 74 -219 389q0 211 79 449q126 384 346 484q60 28 126 28t111 -17q-89 -53 -176 -227q-126 -249 -169 -552q-14 -94 -14 -173q0 -237 119 -237h2q99 0 198 144t163 364t65 416q0 196 -54 280t-208 84q-246 0 -418 -146t-172 -381 q1 -59 11 -79t10 -31q-100 0 -154 39t-53 139q0 100 68 201q145 212 447 306q150 46 310 46z"/>
<glyph glyph-name="multiply" horiz-adv-x="1055" unicode="×" d="M526 399l-192 -192l-133 131l194 194l-194 195l133 131l192 -194l197 196l131 -133l-195 -195l195 -194l-131 -133z"/>
<glyph glyph-name="Oslash" horiz-adv-x="1348" unicode="Ø" d="M719 180q125 94 219 344t94 490q0 102 -16 172t-62 112zM838 1249q-66 -44 -110 -121q-138 -239 -195 -518q-27 -135 -27 -236q0 -211 98 -231zM981 1421q313 -73 313 -475q0 -120 -35 -278q-74 -333 -301 -537q-117 -105 -278 -133l-31 -143h-106l28 133h-4 q-254 0 -328 208q-26 74 -26 165t15 188t44 197q67 224 180 364q131 164 296 164q47 0 92 -14l18 83q-32 7 -112 7t-183 -34t-181 -99q-171 -140 -171 -361q0 -55 10 -73t10 -29q-97 0 -135 27t-52 57t-13 75q0 101 65 196q137 196 432 285q146 44 299 44h25q12 0 25 -2 l22 100h107z"/>
<glyph glyph-name="Ugrave" horiz-adv-x="1473" unicode="Ù" d="M961 1661l-121 387h215l60 -387h-154zM1270 1532h289l-136 -639q-78 -381 -160 -561q-98 -215 -263 -292q-118 -54 -258 -54t-216 22t-122 62q-87 79 -87 237t51 368l185 742q-169 -45 -266 -164t-97 -307q0 -87 24 -128q5 -7 5 -13q-162 0 -204 100q-15 36 -15 88 q0 109 65 207q137 203 420 292q141 44 289 44q45 0 98 -10l-209 -778q-67 -259 -67 -362q0 -104 32 -152t120 -48q89 0 129 30q73 56 127 200t129 483z"/>
<glyph glyph-name="Uacute" horiz-adv-x="1473" unicode="Ú" d="M924 1661l186 387h215l-248 -387h-153zM1270 1532h289l-136 -639q-78 -381 -160 -561q-98 -215 -263 -292q-118 -54 -258 -54t-216 22t-122 62q-87 79 -87 237t51 368l185 742q-169 -45 -266 -164t-97 -307q0 -87 24 -128q5 -7 5 -13q-162 0 -204 100q-15 36 -15 88 q0 109 65 207q137 203 420 292q141 44 289 44q45 0 98 -10l-209 -778q-67 -259 -67 -362q0 -104 32 -152t120 -48q89 0 129 30q73 56 127 200t129 483z"/>
<glyph glyph-name="Ucircumflex" horiz-adv-x="1473" unicode="Û" d="M1278 1661l-123 164l-322 -164h-90l434 387h43l123 -387h-65zM1270 1532h289l-136 -639q-78 -381 -160 -561q-98 -215 -263 -292q-118 -54 -258 -54t-216 22t-122 62q-87 79 -87 237t51 368l185 742q-169 -45 -266 -164t-97 -307q0 -87 24 -128q5 -7 5 -13 q-162 0 -204 100q-15 36 -15 88q0 109 65 207q137 203 420 292q141 44 289 44q45 0 98 -10l-209 -778q-67 -259 -67 -362q0 -104 32 -152t120 -48q89 0 129 30q73 56 127 200t129 483z"/>
<glyph glyph-name="Udieresis" horiz-adv-x="1473" unicode="Ü" d="M1345 1721q-38 -35 -77 -35q-64 0 -100 35t-36 88t36 89t88 37q52 -1 89 -37t37 -88t-37 -89zM977 1721q-38 -35 -77 -35q-66 0 -101 36t-35 87q0 52 35 89q37 37 89 37q52 -1 89 -37t37 -88t-37 -89zM1270 1532h289l-136 -639q-78 -381 -160 -561q-98 -215 -263 -292 q-118 -54 -258 -54t-216 22t-122 62q-87 79 -87 237t51 368l185 742q-169 -45 -266 -164t-97 -307q0 -87 24 -128q5 -7 5 -13q-162 0 -204 100q-15 36 -15 88q0 109 65 207q137 203 420 292q141 44 289 44q45 0 98 -10l-209 -778q-67 -259 -67 -362q0 -104 32 -152t120 -48 q89 0 129 30q73 56 127 200t129 483z"/>
<glyph glyph-name="Yacute" horiz-adv-x="1270" unicode="Ý" d="M928 1661l186 387h215l-248 -387h-153zM569 0l136 631l-197 768q-144 -54 -224 -169t-81 -286q0 -83 23 -125q5 -8 5 -14q-164 0 -205 105q-14 38 -14 94q0 102 64 198t167 170q233 164 488 164q42 0 82 -4l178 -733l303 727h136l-398 -895l-135 -631h-328z"/>
<glyph glyph-name="Thorn" horiz-adv-x="1194" unicode="Þ" d="M608 434q102 0 194 81q129 114 172 308q13 59 13 115q1 119 -59 196t-180 83l-168 -783h28zM438 1151q-235 -123 -235 -432q0 -83 23 -125q5 -8 5 -14q-164 0 -205 105q-14 38 -14 103t36 138t98 136q127 132 315 200l51 233l303 41l-49 -225q222 -11 335 -125t113 -279 q0 -209 -164 -379t-427 -170h-60l-76 -358h-294z"/>
<glyph glyph-name="germandbls" horiz-adv-x="922" unicode="ß" d="M-174 -512l340 1597q39 197 158 284q90 65 220 65t202 -76t73 -174q-1 -98 -49 -183q-48 -84 -139 -127q108 -36 153 -117t45 -179q-1 -98 -19 -183q-18 -84 -48 -149q-56 -118 -146 -181t-176 -65q-35 0 -67 4l26 121q137 0 197 260q27 111 27 241q0 68 -32 112t-116 67 l37 119q64 26 117 81t53 130t-18 97t-48 21q-54 0 -96 -38t-59 -130l-326 -1523z"/>
<glyph glyph-name="agrave" horiz-adv-x="1077" unicode="à" d="M563 1149l-121 387h215l60 -387h-154zM647 829q1 19 -17 49t-75 29q-57 0 -111 -61q-130 -147 -163 -422q-5 -42 -5 -89q0 -91 38 -127q22 -22 55 -22q61 0 111 48t69 133zM1163 367q-130 -379 -411 -379q-181 0 -201 188q-135 -188 -313 -188t-242 175q-23 63 -23 143 t14 162q14 80 43 160q64 176 183 291t287 115q88 0 127 -30t39 -74v-15l22 109h295l-147 -696q-9 -35 -9 -66q0 -88 84 -88q109 0 166 193h86z"/>
<glyph glyph-name="aacute" horiz-adv-x="1077" unicode="á" d="M502 1149l186 387h215l-248 -387h-153zM647 829q1 19 -17 49t-75 29q-57 0 -111 -61q-130 -147 -163 -422q-5 -42 -5 -89q0 -91 38 -127q22 -22 55 -22q61 0 111 48t69 133zM1163 367q-130 -379 -411 -379q-181 0 -201 188q-135 -188 -313 -188t-242 175q-23 63 -23 143 t14 162q14 80 43 160q64 176 183 291t287 115q88 0 127 -30t39 -74v-15l22 109h295l-147 -696q-9 -35 -9 -66q0 -88 84 -88q109 0 166 193h86z"/>
<glyph glyph-name="acircumflex" horiz-adv-x="1077" unicode="â" d="M834 1149l-123 164l-322 -164h-90l434 387h43l123 -387h-65zM647 829q1 19 -17 49t-75 29q-57 0 -111 -61q-130 -147 -163 -422q-5 -42 -5 -89q0 -91 38 -127q22 -22 55 -22q61 0 111 48t69 133zM1163 367q-130 -379 -411 -379q-181 0 -201 188q-135 -188 -313 -188 t-242 175q-23 63 -23 143t14 162q14 80 43 160q64 176 183 291t287 115q88 0 127 -30t39 -74v-15l22 109h295l-147 -696q-9 -35 -9 -66q0 -88 84 -88q109 0 166 193h86z"/>
<glyph glyph-name="atilde" horiz-adv-x="1077" unicode="ã" d="M1018 1372l12 -2q-18 -74 -118 -140t-212 -65q-69 0 -145 26t-116 38t-83 12q-77 0 -135 -53l-12 4q99 201 342 201q79 1 149 -23t107 -34q38 -10 100 -11q62 0 111 47zM647 829q1 19 -17 49t-75 29q-57 0 -111 -61q-130 -147 -163 -422q-5 -42 -5 -89q0 -91 38 -127 q22 -22 55 -22q61 0 111 48t69 133zM1163 367q-130 -379 -411 -379q-181 0 -201 188q-135 -188 -313 -188t-242 175q-23 63 -23 143t14 162q14 80 43 160q64 176 183 291t287 115q88 0 127 -30t39 -74v-15l22 109h295l-147 -696q-9 -35 -9 -66q0 -88 84 -88q109 0 166 193 h86z"/>
<glyph glyph-name="adieresis" horiz-adv-x="1077" unicode="ä" d="M950 1209q-38 -35 -76 -35q-65 0 -101 35t-36 88t36 89t88 37q52 -1 89 -37t37 -88t-37 -89zM582 1209q-38 -35 -76 -35q-66 0 -102 36t-35 87q0 52 35 89q36 37 88 37q52 -1 90 -37q37 -36 37 -88t-37 -89zM647 829q1 19 -17 49t-75 29q-57 0 -111 -61 q-130 -147 -163 -422q-5 -42 -5 -89q0 -91 38 -127q22 -22 55 -22q61 0 111 48t69 133zM1163 367q-130 -379 -411 -379q-181 0 -201 188q-135 -188 -313 -188t-242 175q-23 63 -23 143t14 162q14 80 43 160q64 176 183 291t287 115q88 0 127 -30t39 -74v-15l22 109h295 l-147 -696q-9 -35 -9 -66q0 -88 84 -88q109 0 166 193h86z"/>
<glyph glyph-name="aring" horiz-adv-x="1077" unicode="å" d="M631 1202q94 0 94 94q0 67 -30 88q-14 9 -38 9q-52 0 -74 -38t-22 -77q0 -76 70 -76zM479 1258q0 129 94 183q33 19 95 19t97 -46q36 -46 36 -113q-1 -67 -41 -119t-122 -52t-120 42q-39 42 -39 86zM647 829q1 19 -17 49t-75 29q-57 0 -111 -61q-130 -147 -163 -422 q-5 -42 -5 -89q0 -91 38 -127q22 -22 55 -22q61 0 111 48t69 133zM1163 367q-130 -379 -411 -379q-181 0 -201 188q-135 -188 -313 -188t-242 175q-23 63 -23 143t14 162q14 80 43 160q64 176 183 291t287 115q88 0 127 -30t39 -74v-15l22 109h295l-147 -696q-9 -35 -9 -66 q0 -88 84 -88q109 0 166 193h86z"/>
<glyph glyph-name="ae" horiz-adv-x="1331" unicode="æ" d="M530 467q-10 2 -17 2h-17q-102 0 -163 -49t-61 -120q0 -70 32 -92t60 -22q58 0 97 61t69 220zM1090 934q-75 0 -144 -126t-106 -296q117 8 208 108t91 208q0 106 -49 106zM797 952q119 90 289 90t201 -124q9 -36 9 -100t-39 -139t-104 -132q-138 -121 -328 -133 q-4 -34 -4 -66q0 -116 34 -152t99 -36q126 0 201 47t176 160h70q-228 -375 -565 -375q-248 0 -301 192q-50 -92 -95 -128q-85 -68 -196 -68q-176 0 -236 134q-24 51 -24 139q0 173 122 253t332 80q69 0 107 -8q43 92 43 186t-68 128q-24 11 -87 11q-111 0 -218 -96l-57 59 q144 147 287 157q42 3 85 3q164 0 267 -82z"/>
<glyph glyph-name="ccedilla" horiz-adv-x="786" unicode="ç" d="M506 1042q246 0 246 -186q0 -78 -32 -114t-72 -37q-40 0 -77 24q25 66 25 121q0 84 -58 84t-124 -106q-93 -150 -128 -373q-10 -67 -10 -147q0 -148 141 -148q119 0 199 52t170 155h70q-159 -262 -378 -347q-15 -6 -30 -10l-59 -145q64 16 109 16q127 0 127 -103 q-1 -104 -75 -164t-161 -60t-123 12t-60 24l-46 21q38 65 76 65q54 0 92 -28t65 -27t45 27t17 57t-19 53t-68 23q-50 0 -99 -25l84 235q-29 -3 -60 -3q-146 0 -233 76t-87 249q0 235 119 454q90 165 247 237q81 38 167 38z"/>
<glyph glyph-name="egrave" horiz-adv-x="786" unicode="è" d="M475 1149l-121 387h215l60 -387h-154zM594 860q0 74 -51 74q-75 -2 -145 -132t-101 -290q117 8 207 110t90 238zM856 367q-230 -379 -563 -379q-146 0 -233 76t-87 249q0 234 119 453q91 167 248 238q81 38 168 38q142 0 193 -54t51 -142q0 -176 -141 -298t-330 -134 q-5 -58 -5 -82q0 -104 37 -138t104 -34q119 0 199 52t170 155h70z"/>
<glyph glyph-name="eacute" horiz-adv-x="786" unicode="é" d="M398 1149l186 387h215l-248 -387h-153zM594 860q0 74 -51 74q-75 -2 -145 -132t-101 -290q117 8 207 110t90 238zM856 367q-230 -379 -563 -379q-146 0 -233 76t-87 249q0 234 119 453q91 167 248 238q81 38 168 38q142 0 193 -54t51 -142q0 -176 -141 -298t-330 -134 q-5 -58 -5 -82q0 -104 37 -138t104 -34q119 0 199 52t170 155h70z"/>
<glyph glyph-name="ecircumflex" horiz-adv-x="786" unicode="ê" d="M750 1149l-123 164l-322 -164h-90l434 387h43l123 -387h-65zM594 860q0 74 -51 74q-75 -2 -145 -132t-101 -290q117 8 207 110t90 238zM856 367q-230 -379 -563 -379q-146 0 -233 76t-87 249q0 234 119 453q91 167 248 238q81 38 168 38q142 0 193 -54t51 -142 q0 -176 -141 -298t-330 -134q-5 -58 -5 -82q0 -104 37 -138t104 -34q119 0 199 52t170 155h70z"/>
<glyph glyph-name="edieresis" horiz-adv-x="786" unicode="ë" d="M825 1209q-38 -35 -77 -35q-64 0 -100 35t-36 88t36 89t88 37q52 -1 89 -37t37 -88t-37 -89zM457 1209q-38 -35 -77 -35q-66 0 -101 36t-35 87q0 52 35 89q37 37 89 37q52 -1 89 -37t37 -88t-37 -89zM594 860q0 74 -51 74q-75 -2 -145 -132t-101 -290q117 8 207 110 t90 238zM856 367q-230 -379 -563 -379q-146 0 -233 76t-87 249q0 234 119 453q91 167 248 238q81 38 168 38q142 0 193 -54t51 -142q0 -176 -141 -298t-330 -134q-5 -58 -5 -82q0 -104 37 -138t104 -34q119 0 199 52t170 155h70z"/>
<glyph glyph-name="igrave" horiz-adv-x="547" unicode="ì" d="M256 1149l-121 387h215l60 -387h-154zM633 367q-132 -379 -441 -379q-81 0 -145 58q-63 58 -63 187q0 58 16 134l139 657h295l-147 -696q-8 -37 -8 -73q0 -69 83 -69q60 0 112 52t73 129h86z"/>
<glyph glyph-name="iacute" horiz-adv-x="547" unicode="í" d="M248 1149l186 387h215l-248 -387h-153zM633 367q-132 -379 -441 -379q-81 0 -145 58q-63 58 -63 187q0 58 16 134l139 657h295l-147 -696q-8 -37 -8 -73q0 -69 83 -69q60 0 112 52t73 129h86z"/>
<glyph glyph-name="icircumflex" horiz-adv-x="547" unicode="î" d="M547 1149l-123 164l-322 -164h-90l434 387h43l123 -387h-65zM633 367q-132 -379 -441 -379q-81 0 -145 58q-63 58 -63 187q0 58 16 134l139 657h295l-147 -696q-8 -37 -8 -73q0 -69 83 -69q60 0 112 52t73 129h86z"/>
<glyph glyph-name="idieresis" horiz-adv-x="547" unicode="ï" d="M617 1209q-38 -35 -77 -35q-64 0 -100 35t-36 88t36 89t88 37q52 -1 89 -37t37 -88t-37 -89zM249 1209q-38 -35 -77 -35q-66 0 -101 36t-35 87q0 52 35 89q37 37 89 37q52 -1 89 -37t37 -88t-37 -89zM633 367q-132 -379 -441 -379q-81 0 -145 58q-63 58 -63 187 q0 58 16 134l139 657h295l-147 -696q-8 -37 -8 -73q0 -69 83 -69q60 0 112 52t73 129h86z"/>
<glyph glyph-name="eth" horiz-adv-x="1102" unicode="ð" d="M672 829q0 45 -44 69q-16 9 -40 9q-67 0 -120 -61q-130 -149 -162 -422q-5 -42 -5 -89q-1 -89 29 -119t63 -30q61 0 111 48t69 133zM936 186q110 0 166 181h86q-128 -367 -412 -367q-175 0 -201 178q-121 -190 -305 -190t-249 175q-23 63 -23 143t14 162q14 80 44 160 q63 177 174 282q127 124 294 124q88 0 127 -30t39 -74v-12l17 75q17 75 22 156h-158l17 82h141q-12 103 -86 203h92q74 -43 129 -86t90 -117h129l-16 -82h-86q12 -49 12 -117t-22 -182l-111 -522q-8 -37 -8 -73q0 -69 84 -69z"/>
<glyph glyph-name="ntilde" d="M989 1372l12 -2q-17 -74 -117 -140t-213 -65q-69 0 -145 26t-116 38t-83 12q-77 0 -135 -53l-12 4q99 201 342 201q78 1 148 -23t108 -34t100 -11q62 0 111 47zM780 274q0 -88 75 -88q69 0 106 44t73 137h86q-119 -345 -322 -375q-32 -4 -79 -4t-93 20q-128 54 -128 211 q0 84 46 268t46 254q0 105 -74 105t-132 -117q-17 -33 -28 -72l-139 -657h-295l217 1024h295l-22 -106q100 114 239 114q98 0 163 -54t65 -160t-34 -240l-49 -198q-16 -65 -16 -106z" unicode="ñ"/>
<glyph glyph-name="ograve" horiz-adv-x="887" unicode="ò" d="M487 1149l-121 387h215l60 -387h-154zM607 602q-55 14 -55 91t64 106q-4 65 -20 92t-65 27q-94 0 -180 -208t-86 -368q0 -100 18 -126t38 -33t53 -7q71 0 140 123t93 303zM1140 778q-124 -130 -363 -170q-24 -280 -161 -448t-328 -168q-236 0 -304 174q-24 61 -24 135 q0 75 12 151t40 157q61 183 177 297q138 136 332 136q263 0 263 -327v-2q10 -2 34 -2q56 0 142 35t162 88z"/>
<glyph glyph-name="oacute" horiz-adv-x="887" unicode="ó" d="M449 1149l186 387h215l-248 -387h-153zM607 602q-55 14 -55 91t64 106q-4 65 -20 92t-65 27q-94 0 -180 -208t-86 -368q0 -100 18 -126t38 -33t53 -7q71 0 140 123t93 303zM1140 778q-124 -130 -363 -170q-24 -280 -161 -448t-328 -168q-236 0 -304 174q-24 61 -24 135 q0 75 12 151t40 157q61 183 177 297q138 136 332 136q263 0 263 -327v-2q10 -2 34 -2q56 0 142 35t162 88z"/>
<glyph glyph-name="ocircumflex" horiz-adv-x="887" unicode="ô" d="M730 1149l-123 164l-322 -164h-90l434 387h43l123 -387h-65zM607 602q-55 14 -55 91t64 106q-4 65 -20 92t-65 27q-94 0 -180 -208t-86 -368q0 -100 18 -126t38 -33t53 -7q71 0 140 123t93 303zM1140 778q-124 -130 -363 -170q-24 -280 -161 -448t-328 -168 q-236 0 -304 174q-24 61 -24 135q0 75 12 151t40 157q61 183 177 297q138 136 332 136q263 0 263 -327v-2q10 -2 34 -2q56 0 142 35t162 88z"/>
<glyph glyph-name="otilde" horiz-adv-x="887" unicode="õ" d="M891 1372l12 -2q-17 -74 -117 -140t-213 -65q-69 0 -145 26t-116 38t-83 12q-77 0 -135 -53l-12 4q99 201 342 201q78 1 148 -23t108 -34t100 -11q62 0 111 47zM607 602q-55 14 -55 91t64 106q-4 65 -20 92t-65 27q-94 0 -180 -208t-86 -368q0 -100 18 -126t38 -33t53 -7 q71 0 140 123t93 303zM1140 778q-124 -130 -363 -170q-24 -280 -161 -448t-328 -168q-236 0 -304 174q-24 61 -24 135q0 75 12 151t40 157q61 183 177 297q138 136 332 136q263 0 263 -327v-2q10 -2 34 -2q56 0 142 35t162 88z"/>
<glyph glyph-name="odieresis" horiz-adv-x="887" unicode="ö" d="M796 1209q-38 -35 -76 -35q-65 0 -101 35t-36 88t36 89t88 37q52 -1 89 -37t37 -88t-37 -89zM428 1209q-38 -35 -76 -35q-66 0 -102 36t-35 87q0 52 35 89q36 37 88 37q52 -1 90 -37q37 -36 37 -88t-37 -89zM607 602q-55 14 -55 91t64 106q-4 65 -20 92t-65 27 q-94 0 -180 -208t-86 -368q0 -100 18 -126t38 -33t53 -7q71 0 140 123t93 303zM1140 778q-124 -130 -363 -170q-24 -280 -161 -448t-328 -168q-236 0 -304 174q-24 61 -24 135q0 75 12 151t40 157q61 183 177 297q138 136 332 136q263 0 263 -327v-2q10 -2 34 -2 q56 0 142 35t162 88z"/>
<glyph glyph-name="divide" horiz-adv-x="967" unicode="÷" d="M105 422l37 161h717l-35 -161h-719zM471 735q-47 47 -47 115t46 116t115 48t117 -48t48 -116t-49 -116q-49 -46 -116 -46t-114 47zM348 49q-47 47 -47 114q1 67 47 116t114 49t116 -48t49 -117q0 -69 -49 -115t-116 -46t-114 47z"/>
<glyph glyph-name="oslash" horiz-adv-x="877" unicode="ø" d="M614 608q-57 16 -57 98t64 105q-5 59 -23 83t-64 24t-95 -62q-94 -122 -142 -339q-21 -99 -21 -163q0 -110 22 -144t72 -34q86 0 153 123t91 309zM242 -211l43 203q-226 7 -291 177q-23 60 -23 132q-1 71 11 147t38 155q60 182 180 306t308 131l41 199h106l-43 -209 q170 -45 176 -299q143 7 304 123h65q-41 -64 -149 -132t-224 -95q-16 -251 -122 -415t-269 -208l-45 -215h-106z"/>
<glyph glyph-name="ugrave" d="M500 1149l-121 387h215l60 -387h-154zM1120 367q-130 -379 -411 -379q-183 0 -203 194q-120 -194 -303 -194q-92 0 -156 58q-63 58 -63 187q0 58 16 134l139 657h295l-147 -696q-6 -32 -6 -58q0 -84 61 -84q108 0 164 181l139 657h295l-147 -696q-9 -35 -9 -72 q0 -70 84 -70q115 0 166 181h86z" unicode="ù"/>
<glyph glyph-name="uacute" d="M490 1149l186 387h215l-248 -387h-153zM1120 367q-130 -379 -411 -379q-183 0 -203 194q-120 -194 -303 -194q-92 0 -156 58q-63 58 -63 187q0 58 16 134l139 657h295l-147 -696q-6 -32 -6 -58q0 -84 61 -84q108 0 164 181l139 657h295l-147 -696q-9 -35 -9 -72 q0 -70 84 -70q115 0 166 181h86z" unicode="ú"/>
<glyph glyph-name="ucircumflex" d="M793 1149l-123 164l-322 -164h-90l434 387h43l123 -387h-65zM1120 367q-130 -379 -411 -379q-183 0 -203 194q-120 -194 -303 -194q-92 0 -156 58q-63 58 -63 187q0 58 16 134l139 657h295l-147 -696q-6 -32 -6 -58q0 -84 61 -84q108 0 164 181l139 657h295l-147 -696 q-9 -35 -9 -72q0 -70 84 -70q115 0 166 181h86z" unicode="û"/>
<glyph glyph-name="udieresis" d="M860 1209q-38 -35 -76 -35q-65 0 -101 35t-36 88t36 89t88 37q52 -1 89 -37t37 -88t-37 -89zM492 1209q-38 -35 -76 -35q-66 0 -102 36t-35 87q0 52 35 89q36 37 88 37q52 -1 90 -37q37 -36 37 -88t-37 -89zM1120 367q-130 -379 -411 -379q-183 0 -203 194 q-120 -194 -303 -194q-92 0 -156 58q-63 58 -63 187q0 58 16 134l139 657h295l-147 -696q-6 -32 -6 -58q0 -84 61 -84q108 0 164 181l139 657h295l-147 -696q-9 -35 -9 -72q0 -70 84 -70q115 0 166 181h86z" unicode="ü"/>
<glyph glyph-name="yacute" d="M488 1149l186 387h215l-248 -387h-153zM403 -111q-200 -72 -200 -174q0 -41 39 -61q13 -6 38 -6t58 44t53 138zM281 276q1 -90 59 -90t99 48q40 49 63 120l143 670h295l-203 -950q93 30 153 94t105 199h86q-78 -264 -264 -348q-51 -23 -98 -35l-31 -148 q-39 -197 -156 -284q-86 -64 -197 -64t-178 49t-67 157q0 187 334 298l25 110q-106 -114 -246 -114q-92 0 -156 58q-63 58 -63 187q0 58 16 134l139 657h295l-147 -696q-6 -26 -6 -52z" unicode="ý"/>
<glyph glyph-name="thorn" horiz-adv-x="969" unicode="þ" d="M627 717q0 170 -103 170q-34 -1 -74 -27t-69 -80l-121 -563q17 -51 88 -51t126 58q107 114 138 326q15 94 15 167zM227 63l-106 -501l-309 -74l319 1505q25 109 25 191q0 134 -88 250h92q127 -75 170 -129q88 -108 88 -265q0 -42 -8 -100q101 94 247 94q177 0 231 -170 q19 -62 19 -142q1 -80 -9 -162q-10 -80 -33 -160t-61 -155q-38 -73 -93 -131q-57 -58 -133 -92t-192 -34t-159 75z"/>
<glyph glyph-name="OE" horiz-adv-x="1733" unicode="Œ" d="M1253 1364q90 -128 90 -352q0 -73 -10 -154h273l-41 -151h-259q-44 -189 -140 -356q-42 -73 -95 -134h498l-43 -217h-793q-67 -12 -147 -12q-168 0 -266 98t-99 312q0 212 79 450q126 384 346 484q60 28 126 28t111 -17q-89 -53 -176 -227q-126 -249 -169 -552 q-14 -94 -14 -173q0 -237 119 -237h2q99 0 198 144t163 364t65 416q0 196 -54 280t-208 84q-246 0 -418 -146t-172 -381q1 -59 11 -79t10 -31q-100 0 -154 39t-53 139q0 100 68 201q145 212 447 306q150 46 296 46t239 -38q118 38 225 38t194 -12t190 -13q103 0 180 25 l-19 -70q-39 -146 -176 -176q-98 0 -232 34t-192 40z"/>
<glyph glyph-name="oe" horiz-adv-x="1358" unicode="œ" d="M897 510q133 0 229 98t95 211q0 72 -36 103q-15 12 -47 12t-70 -39q-110 -111 -171 -385zM618 817q-8 107 -86 107q-71 0 -124 -68q-96 -126 -135 -355q-15 -98 -15 -175q0 -76 40 -108t92 -32q94 0 152 124q49 101 72 272q-46 0 -66 28t-20 56q0 54 26 94t64 57z M1081 1042q262 0 262 -213q0 -175 -159 -294q-140 -106 -303 -123q-7 -44 -7 -92q0 -91 49 -132t103 -41q94 -1 202 79t158 192h93q-157 -285 -393 -382q-86 -35 -188 -36h-2q-100 0 -170 50t-101 128q-135 -190 -326 -190q-164 0 -239 76q-74 77 -74 262q0 353 162 546 q146 172 376 172q104 0 156 -49t74 -125q126 172 327 172z"/>
<glyph glyph-name="Scaron" horiz-adv-x="1167" unicode="Š" d="M777 1661h-43l-123 387h65l123 -164l322 164h90zM613 1126q63 36 85 125q7 25 7 65q-1 40 -33 82t-118 42t-138 -46q-51 -46 -51 -122q0 -75 20 -120q35 -81 125 -162l86 -76q111 -100 151 -166q79 -133 79 -270q0 -255 -176 -394q-159 -127 -400 -127q-298 0 -399 191 q-35 67 -35 156q0 161 92 251t206 90t164 -69q18 -26 20 -66q-157 0 -218 -103q-22 -37 -22 -83q0 -88 52 -146t150 -57q100 0 166 71t66 180q0 110 -31 180t-78 131t-101 117t-101 112q-109 132 -109 257q0 159 136 263t337 104q247 0 313 -150q17 -40 17 -114t-45 -131 q-44 -58 -112 -58t-105 43z"/>
<glyph glyph-name="scaron" horiz-adv-x="756" unicode="š" d="M449 1149h-43l-123 387h65l123 -164l322 164h90zM150 150q196 0 196 190q0 53 -8 125l-12 117q-11 112 -19 243q-52 -168 -166 -387q47 -22 47 -66t-24 -74q-24 -32 -66 -32t-55 27q0 -143 107 -143zM868 367q-127 -148 -313 -256q-116 -123 -322 -123q-143 0 -221 78 t-78 168q0 88 34 137t75 69q144 258 252 607l303 40q8 -192 16 -321l25 -325q4 -48 4 -95t-8 -82q90 52 147 103h86z"/>
<glyph glyph-name="Ydieresis" horiz-adv-x="1270" unicode="Ÿ" d="M1358 1721q-38 -35 -76 -35q-65 0 -101 35t-36 88t36 89t88 37q52 -1 89 -37t37 -88t-37 -89zM990 1721q-38 -35 -76 -35q-66 0 -102 36t-35 87q0 52 35 89q36 37 88 37q52 -1 90 -37q37 -36 37 -88t-37 -89zM569 0l136 631l-197 768q-144 -54 -224 -169t-81 -286 q0 -83 23 -125q5 -8 5 -14q-164 0 -205 105q-14 38 -14 94q0 102 64 198t167 170q233 164 488 164q42 0 82 -4l178 -733l303 727h136l-398 -895l-135 -631h-328z"/>
<glyph glyph-name="circumflex" horiz-adv-x="600" unicode="ˆ" d="M535 1149l-123 164l-322 -164h-90l434 387h43l123 -387h-65z"/>
<glyph glyph-name="tilde" horiz-adv-x="825" unicode="˜" d="M887 1372l12 -2q-17 -74 -117 -140q-101 -65 -213 -65q-69 0 -145 26t-116 38t-83 12q-77 0 -135 -53l-12 4q99 201 342 201q78 1 148 -23t108 -34t100 -11q62 0 111 47z"/>
<glyph glyph-name="afii10023" horiz-adv-x="940" unicode="Ё" d="M1069 1721q-38 -35 -77 -35q-64 0 -100 35t-36 88t36 89t88 37q52 -1 89 -37t37 -88t-37 -89zM624 1686q-96 0 -128 74q-9 22 -9 62t36 76q37 36 89 37q52 -1 88 -37t37 -88q0 -52 -37 -88t-76 -36zM393 854q-125 91 -125 251q0 159 130 297t319 138q127 0 210 -66 t83 -174t-45 -168t-104 -61q-59 0 -99 55q36 14 63 68t27 114t-36 85q-37 26 -80 26q-86 -1 -146 -89t-60 -200q0 -154 112 -232q40 -28 95 -42q-156 -34 -261 -187t-105 -302q0 -87 45 -147t148 -60q104 0 214 55t166 154l47 -21q-81 -178 -247 -282t-352 -103 q-188 -1 -283 103t-95 266t105 321t274 201z"/>
<glyph glyph-name="afii10051" horiz-adv-x="1485" unicode="Ђ" d="M569 -182q42 -45 107 -45q107 0 184 125q91 148 158 469q35 167 35 255t-33 118q-32 30 -96 30t-142 -55l-153 -715h-295l291 1356h-25q-181 0 -274 -84q-111 -100 -111 -330q0 -81 25 -125q4 -8 4 -14q-166 0 -205 105q-14 38 -14 117t38 175t121 170q184 164 539 164 q145 0 231 -15t148 -23q64 -8 170 -9q106 0 213 43q-4 -136 -68 -198q-65 -62 -173 -62t-333 45l-100 -463q124 78 287 78t222 -162q21 -55 21 -157t-43 -282q-152 -638 -458 -737q-48 -16 -106 -16q-116 0 -163 78q-23 37 -23 78t21 86z"/>
<glyph glyph-name="afii10052" horiz-adv-x="877" unicode="Ѓ" d="M754 1661l186 387h215l-248 -387h-153zM768 1331l-287 -1331h-295l295 1368q-132 -4 -199 -97t-67 -327q0 -81 25 -125q4 -8 4 -14q-166 0 -205 105q-14 38 -14 100t15 128t50 125q76 127 234 200t411 73q71 0 163 -12t200 -13q108 0 188 25q-8 -22 -14 -48t-14 -54 q-8 -27 -22 -53q-13 -26 -33 -46q-19 -21 -49 -33t-108 -12t-278 41z"/>
<glyph glyph-name="afii10053" horiz-adv-x="1018" unicode="Є" d="M406 770q-27 -150 -27 -254q1 -104 11 -162t38 -101q58 -89 188 -89q256 0 408 205l47 -21q-98 -248 -373 -344q-108 -38 -212 -38h-6q-227 2 -334 118t-107 373t85 513q99 302 292 452q148 114 338 114q238 0 315 -149q27 -52 27 -125q0 -189 -144 -189q-72 0 -116 53 q38 20 66 75t28 109t-28 92t-91 38q-113 0 -211 -147t-160 -371h391l-32 -152h-393z"/>
<glyph glyph-name="afii10054" horiz-adv-x="1112" unicode="Ѕ" d="M797 1126q63 36 85 125q7 25 7 65t-33 82q-34 42 -120 42t-136 -46t-51 -122q0 -75 20 -120q35 -81 125 -162l86 -76q111 -100 151 -166q79 -133 79 -270q0 -255 -168 -388t-408 -133q-298 0 -399 191q-35 67 -35 156q0 160 92 250t205 91q114 0 163 -69q19 -26 21 -66 q-158 0 -217 -103q-22 -37 -22 -83q0 -88 51 -146t151 -57q100 0 166 71t66 180q0 110 -31 180t-78 131t-101 117t-101 112q-109 132 -109 257q0 159 136 263t337 104q247 0 313 -150q17 -40 17 -114t-45 -131q-44 -58 -112 -58t-105 43z"/>
<glyph glyph-name="afii10055" horiz-adv-x="766" unicode="І" d="M205 0l297 1391q-135 -57 -211 -169t-76 -278q0 -81 25 -125q4 -8 4 -14q-166 0 -205 105q-14 38 -14 94q0 103 65 198q131 195 396 289q127 45 257 45q42 0 82 -4l-325 -1532h-295z"/>
<glyph glyph-name="afii10056" horiz-adv-x="766" unicode="Ї" d="M610 1721q-38 -35 -76 -35q-65 0 -101 35t-36 88t36 89t88 37q52 -1 89 -37t37 -88t-37 -89zM979 1721q-38 -35 -77 -35q-64 0 -100 35t-36 88t36 89t88 37q52 -1 89 -37t37 -88t-37 -89zM205 0l297 1391q-135 -57 -211 -169t-76 -278q0 -81 25 -125q4 -8 4 -14 q-166 0 -205 105q-14 38 -14 94q0 103 65 198q131 195 396 289q127 45 257 45q42 0 82 -4l-325 -1532h-295z"/>
<glyph glyph-name="afii10057" horiz-adv-x="926" unicode="Ј" d="M274 -80q-62 53 -128 53t-102 -47t-36 -96q0 -80 43 -116t87 -36q82 0 126 50t78 202l322 1463q-136 -55 -212 -169t-77 -280q0 -83 23 -125q5 -8 5 -14q-164 0 -205 105q-14 38 -14 94q0 102 64 198t167 170q233 164 488 164h82l-307 -1454q-54 -250 -176 -378 t-363 -128q-147 0 -225 80t-78 199q0 120 67 202t169 82t138 -17q77 -34 77 -120q0 -39 -13 -82z"/>
<glyph glyph-name="afii10058" horiz-adv-x="1673" unicode="Љ" d="M1317 520q0 252 -195 252q-54 0 -100 -22l-160 -750h-295l295 1391q-177 -96 -386 -523q-144 -292 -218 -568t-74 -384t29 -149q-121 0 -170 25q-104 52 -104 192q0 214 161 562t356 596q311 394 566 394q104 0 162 -29l-140 -651q106 37 203 37q179 0 267 -104 q88 -103 88 -281t-103 -344q-51 -84 -135 -142t-210 -57q-126 0 -176 81q-24 38 -24 87t23 103q57 -74 125 -74t106 34q109 96 109 324z"/>
<glyph glyph-name="afii10059" horiz-adv-x="1907" unicode="Њ" d="M1550 520q0 252 -194 252q-55 0 -101 -22l-159 -750h-295l164 770h-301l-164 -770h-295l297 1393q-136 -58 -212 -171t-75 -278q0 -81 25 -125q4 -8 4 -14q-166 0 -205 105q-14 38 -14 94q0 103 65 198q131 195 396 289q127 45 257 45q42 0 82 -4l-131 -610h301l131 610 h295l-143 -676q123 37 212 37q169 0 257 -103t88 -276q-1 -78 -25 -172t-78 -178t-136 -142q-83 -57 -176 -57q-158 0 -208 81q-24 40 -24 88t22 102q58 -74 126 -74t106 34t74 110q34 76 34 214z"/>
<glyph glyph-name="afii10060" horiz-adv-x="1526" unicode="Ћ" d="M1053 627q0 143 -114 143q-79 0 -157 -55l-153 -715h-295l291 1356h-25q-181 0 -274 -84q-111 -100 -111 -330q0 -81 25 -125q4 -8 4 -14q-166 0 -205 105q-14 38 -14 117t38 175t121 170q184 164 539 164q145 0 231 -15t148 -23q64 -8 170 -9q106 0 213 43 q-4 -136 -68 -198q-65 -62 -173 -62t-333 45l-100 -463q122 78 287 78t223 -162q20 -54 20 -148q-1 -94 -41 -256t-40 -220q0 -113 79 -144q-128 -35 -215 -35q-159 0 -159 137q0 77 59 322q5 23 10 50l9 58q10 62 10 95z"/>
<glyph glyph-name="afii10061" horiz-adv-x="1300" unicode="Ќ" d="M864 1661l186 387h215l-248 -387h-153zM918 -35q-173 0 -173 132q1 81 55 269t54 275q0 139 -123 139q-27 0 -67 -8l-164 -772h-295l297 1393q-136 -58 -212 -171t-75 -278q0 -81 25 -125q4 -8 4 -14q-166 0 -205 105q-14 38 -14 94q0 103 65 198q131 195 396 289 q127 45 257 45q42 0 82 -4l-131 -612q64 184 181 351t205 216t158 49q69 0 101 -26q56 -45 56 -98q1 -87 -39 -122t-94 -35q-88 0 -121 82q-194 -115 -353 -467q25 2 46 2h40q205 0 242 -132q12 -40 12 -95q0 -83 -50 -265t-50 -237q0 -113 80 -143q-128 -35 -190 -35z"/>
<glyph glyph-name="afii10062" horiz-adv-x="1319" unicode="Ў" d="M897 1964q127 0 127 -117q0 -59 -49 -92q32 -8 76 -8q97 0 175 51q97 61 146 189h86q-96 -279 -301 -333q-63 -16 -131 -16q-128 0 -197 48t-69 121t36 115t101 42zM690 164q71 28 123 151l-293 1084q-144 -54 -224 -169t-81 -286q0 -81 25 -125q4 -8 4 -14 q-166 0 -205 105q-14 38 -14 94q0 103 65 198q131 195 396 289q127 45 257 45q42 0 82 -4l179 -768l323 762h135l-512 -1211q-60 -138 -111 -198q-109 -127 -239 -127t-167 90q-11 28 -11 78t37 88t97 39q117 0 134 -121z"/>
<glyph glyph-name="afii10145" horiz-adv-x="1362" unicode="Џ" d="M410 -424l92 424h-297l297 1393q-136 -58 -212 -171t-75 -278q0 -81 25 -125q4 -8 4 -14q-166 0 -205 105q-14 38 -14 94q0 103 65 198q131 195 396 289q127 45 257 45q42 0 82 -4l-295 -1380h301l295 1380h295l-325 -1532h-299l-90 -424h-297z"/>
<glyph glyph-name="afii10017" horiz-adv-x="1319" unicode="А" d="M688 905q138 -26 250 -71l119 557q-176 -96 -369 -486zM399 70q-20 -110 -20 -188t29 -115q-122 0 -171 25q-104 52 -104 192q0 212 179 596q55 120 122 237q-96 -5 -158 -29t-81 -77q8 -1 17 -21t9 -50q1 -30 -33 -52t-84 -21q-50 0 -88 30q-36 30 -36 85q0 107 118 182 q120 74 299 74q41 0 107 -6q265 419 530 556q93 48 187 48t157 -29l-321 -1507h-295l158 743q-138 62 -275 74q-184 -407 -246 -747z"/>
<glyph glyph-name="afii10018" horiz-adv-x="1319" unicode="Б" d="M936 520q0 252 -195 252q-50 0 -98 -20l-162 -752h-295l295 1368q-129 -4 -197 -98t-69 -326q0 -81 25 -125q4 -8 4 -14q-166 0 -205 105q-14 38 -14 117t38 175t121 170q184 164 539 164q31 0 77 -4l100 -8q148 -13 240 -13t169 25l-15 -74q-19 -98 -83 -146 q-36 -26 -97 -26q-136 0 -346 41l-102 -475q123 37 210 37q170 0 258 -104q88 -103 87 -281q0 -178 -103 -344q-52 -84 -136 -142t-209 -57q-126 0 -176 81q-24 40 -24 88t23 102q58 -74 126 -74t106 34q108 96 108 324z"/>
<glyph glyph-name="afii10019" horiz-adv-x="1313" unicode="В" d="M956 530q0 261 -194 261q-45 0 -94 -7l-168 -784h-295l278 1303l303 40l-96 -454h12q118 0 206 106t89 226q0 150 -145 203q-52 18 -118 18t-128 -14t-118 -40q-125 -62 -199 -174t-74 -270q0 -81 25 -125q4 -8 4 -14q-162 0 -204 100q-15 36 -15 88q0 109 61 205 t164 172q229 166 518 166q214 0 325 -94t111 -232q0 -92 -52 -180t-153 -145q124 -25 183 -115t59 -215q0 -73 -21 -175q-48 -226 -212 -351q-86 -64 -218 -64t-180 75q-20 30 -20 78t26 118q69 -74 132 -74q108 0 163 126q45 102 45 242z"/>
<glyph glyph-name="afii10020" horiz-adv-x="877" unicode="Г" d="M768 1331l-287 -1331h-295l295 1368q-132 -4 -199 -97t-67 -327q0 -81 25 -125q4 -8 4 -14q-166 0 -205 105q-14 38 -14 100t15 128t50 125q76 127 234 200t411 73q71 0 163 -12t200 -13q108 0 188 25q-8 -22 -14 -48t-14 -54q-8 -27 -22 -53q-13 -26 -33 -46 q-19 -21 -49 -33t-108 -12t-278 41z"/>
<glyph glyph-name="afii10021" horiz-adv-x="1370" unicode="Д" d="M274 338q-35 20 -62 20q-57 0 -104 -48t-47 -115q0 -31 24 -49t57 -19q32 0 68 34t54 126zM489 102q-100 -157 -299 -157q-96 1 -168 63t-73 170q1 108 79 181t187 73q44 0 76 -16l192 887l303 40l-223 -1050q-14 -63 -26 -96q49 -43 131 -43t154 82q138 156 201 503 q28 158 28 289q0 226 -83 326q-76 88 -204 88q-248 0 -398 -135t-151 -363q0 -81 25 -125q4 -8 4 -14q-103 0 -161 43t-58 147v5q0 136 105 260q162 193 456 256q97 20 223 20t230 -48q294 -136 294 -542q0 -178 -47 -352q-97 -365 -304 -535q-104 -86 -216 -86 q-155 0 -277 129z"/>
<glyph glyph-name="afii10022" horiz-adv-x="940" unicode="Е" d="M393 854q-125 91 -125 251q0 159 130 297t319 138q127 0 210 -66t83 -174t-45 -168t-104 -61q-59 0 -99 55q36 14 63 68t27 114t-36 85q-37 26 -80 26q-86 -1 -146 -89t-60 -200q0 -154 112 -232q40 -28 95 -42q-156 -34 -261 -187t-105 -302q0 -87 45 -147t148 -60 q104 0 214 55t166 154l47 -21q-81 -178 -247 -282t-352 -103q-188 -1 -283 103t-95 266t105 321t274 201z"/>
<glyph glyph-name="afii10024" horiz-adv-x="1591" unicode="Ж" d="M1155 608q0 140 -123 140q-39 0 -74 -7l-157 -741h-295l158 745q-13 3 -25 3h-37q-77 0 -129 -53t-70 -119q-26 -95 -46 -228l-15 -102q-24 -162 -74 -222t-155 -59q-105 0 -207 35q138 73 179 354q21 146 43 211q45 132 120 199q88 88 276 88h6q4 65 4 140t-9 152 q-14 125 -91 193q-43 -82 -127 -82t-111 75q-8 23 -8 58q0 70 58 109t134 39q78 0 128 -36t81 -96q69 -131 69 -362q0 -98 -15 -198q21 0 41 -4l135 628l307 64l-147 -692q24 4 47 4q47 219 146 403t216 247q80 42 132 42q86 0 130 -36t44 -88q0 -87 -40 -122t-93 -35 q-88 0 -121 82q-138 -80 -234 -329l-59 -156h29q202 0 242 -132q12 -40 12 -96q0 -75 -50 -256l-35 -125q-16 -60 -16 -108q-1 -49 21 -85t59 -50q-128 -35 -203 -35q-159 0 -159 137q0 68 37 194q38 126 54 192t17 120z"/>
<glyph glyph-name="afii10025" horiz-adv-x="1075" unicode="З" d="M184 227q0 -139 178 -139q56 0 110 37t91 97q74 122 74 292q0 199 -135 242q-44 14 -101 14h-86l33 152h74q129 2 207 104t78 195q0 178 -160 178q-192 0 -314 -236l-47 21q46 170 170 260t302 90t266 -88q90 -88 90 -236q0 -186 -178 -297q-57 -35 -129 -59 q264 -78 264 -322t-167 -406q-167 -163 -442 -163q-172 -1 -277 69t-105 212q0 84 48 134t106 50t84 -14t42 -39q-76 -45 -76 -148z"/>
<glyph glyph-name="afii10026" horiz-adv-x="1444" unicode="И" d="M883 0l223 1053l-606 -1053h-295l297 1393q-136 -58 -212 -171t-75 -278q0 -81 25 -125q4 -8 4 -14q-166 0 -205 105q-14 38 -14 94q0 103 65 198q131 195 396 289q127 45 257 45q42 0 82 -4l-231 -1090l614 1090h295l-325 -1532h-295z"/>
<glyph glyph-name="afii10027" horiz-adv-x="1444" unicode="Й" d="M885 1964q127 0 127 -117q0 -59 -49 -92q32 -8 76 -8q97 0 175 51q97 61 146 189h86q-96 -279 -301 -333q-63 -16 -131 -16q-128 0 -197 48t-69 121t36 115t101 42zM883 0l223 1053l-606 -1053h-295l297 1393q-136 -58 -212 -171t-75 -278q0 -81 25 -125q4 -8 4 -14 q-166 0 -205 105q-14 38 -14 94q0 103 65 198q131 195 396 289q127 45 257 45q42 0 82 -4l-231 -1090l614 1090h295l-325 -1532h-295z"/>
<glyph glyph-name="afii10028" horiz-adv-x="1300" unicode="К" d="M918 -35q-173 0 -173 132q1 81 55 269t54 275q0 139 -123 139q-27 0 -67 -8l-164 -772h-295l297 1393q-136 -58 -212 -171t-75 -278q0 -81 25 -125q4 -8 4 -14q-166 0 -205 105q-14 38 -14 94q0 103 65 198q131 195 396 289q127 45 257 45q42 0 82 -4l-131 -612 q64 184 181 351t205 216t158 49q69 0 101 -26q56 -45 56 -98q1 -87 -39 -122t-94 -35q-88 0 -121 82q-194 -115 -353 -467q25 2 46 2h40q205 0 242 -132q12 -40 12 -95q0 -83 -50 -265t-50 -237q0 -113 80 -143q-128 -35 -190 -35z"/>
<glyph glyph-name="afii10029" horiz-adv-x="1124" unicode="Л" d="M184 -120q0 -72 29 -113q-121 0 -170 25q-104 52 -104 192q0 214 161 562t356 596q311 394 566 394q104 0 162 -29l-322 -1507h-295l295 1391q-177 -96 -386 -523q-144 -292 -218 -568t-74 -420z"/>
<glyph glyph-name="afii10030" horiz-adv-x="1667" unicode="М" d="M360 805q-219 0 -219 186q0 194 209 371q90 78 208 126t215 48t175 -29l-47 -1079l451 1079h295l-215 -1507h-295l131 920l-385 -920h-281l41 924l-342 -924h-164l520 1407q-153 -51 -239 -168t-86 -293q0 -88 24 -128q4 -7 4 -13z"/>
<glyph glyph-name="afii10031" horiz-adv-x="1362" unicode="Н" d="M801 0l164 770h-301l-164 -770h-295l297 1393q-136 -58 -212 -171t-75 -278q0 -81 25 -125q4 -8 4 -14q-166 0 -205 105q-14 38 -14 94q0 103 65 198q131 195 396 289q127 45 257 45q42 0 82 -4l-131 -610h301l131 610h295l-325 -1532h-295z"/>
<glyph glyph-name="afii10032" horiz-adv-x="1362" unicode="О" d="M858 1536q485 0 485 -524q0 -353 -177 -660q-126 -221 -336 -316q-108 -48 -216 -48t-174 22q-219 74 -219 389q0 211 79 449q126 384 346 484q60 28 126 28t111 -17q-89 -53 -176 -227q-126 -249 -169 -552q-14 -94 -14 -173q0 -237 119 -237h2q99 0 198 144t163 364 t65 416q0 196 -54 280t-208 84q-246 0 -418 -146t-172 -381q1 -59 11 -79t10 -31q-100 0 -154 39t-53 139q0 100 68 201q145 212 447 306q150 46 310 46z"/>
<glyph glyph-name="afii10033" horiz-adv-x="1409" unicode="П" d="M1614 1528q-6 -255 -246 -260l-272 -1268h-295l278 1292l-293 47l-286 -1339h-295l289 1348q-279 -49 -279 -406q0 -81 25 -125q4 -8 4 -14q-166 0 -205 105q-14 38 -14 117t38 175t121 170q184 164 539 164q119 0 253 -17t216 -25t199 -7q117 0 223 43z"/>
<glyph glyph-name="afii10034" horiz-adv-x="1174" unicode="Р" d="M193 0l278 1303l303 40l-145 -684q150 14 254 172t104 342t-139 247q-48 22 -115 22q-250 0 -390 -131t-140 -367q0 -83 23 -125q5 -8 5 -14q-164 0 -205 105q-14 38 -14 94q0 102 64 198t167 170q233 164 479 164t369 -116t123 -287q0 -98 -40 -196t-118 -177 q-172 -176 -433 -176h-11l-125 -584h-294z"/>
<glyph glyph-name="afii10035" horiz-adv-x="1018" unicode="С" d="M1096 1262q0 -189 -144 -189q-72 0 -116 53q38 20 66 75t28 109t-28 92t-92 38q-62 0 -116 -42t-100 -114q-95 -144 -155 -368t-60 -406q-1 -182 53 -264t184 -82q256 0 408 205l47 -21q-98 -248 -373 -344q-108 -38 -212 -38h-6q-227 2 -334 118t-107 373t85 513 q99 302 292 452q148 114 338 114q238 0 315 -149q27 -52 27 -125z"/>
<glyph glyph-name="afii10036" horiz-adv-x="985" unicode="Т" d="M899 1315l-283 -1315h-294l290 1356h-24q-181 0 -274 -84q-111 -100 -111 -330q0 -83 23 -125q5 -8 5 -14q-164 0 -205 105q-14 38 -14 117t38 175t122 170q185 164 539 164q145 0 231 -15t148 -23q64 -9 170 -9t213 43q-10 -260 -256 -260q-93 0 -318 45z"/>
<glyph glyph-name="afii10037" horiz-adv-x="1319" unicode="У" d="M690 164q71 28 123 151l-293 1084q-144 -54 -224 -169t-81 -286q0 -81 25 -125q4 -8 4 -14q-166 0 -205 105q-14 38 -14 94q0 103 65 198q131 195 396 289q127 45 257 45q42 0 82 -4l179 -768l323 762h135l-512 -1211q-60 -138 -111 -198q-108 -127 -239 -127 q-130 0 -167 90q-11 28 -11 78t37 88t97 39q117 0 134 -121z"/>
<glyph glyph-name="afii10038" horiz-adv-x="1610" unicode="Ф" d="M733 1165q-205 -35 -308 -164t-103 -374q0 -126 62 -219t167 -101zM858 307q96 0 174 48t132 125q114 160 114 362q0 275 -250 323l-182 -858h12zM485 0l45 211q-248 5 -370 131t-121 294q0 168 57 278q160 301 660 352l65 307q-297 -21 -362 -119q-23 -34 -23 -79 t17 -91q-21 -2 -39 -2q-110 0 -152 68q-15 26 -15 51v28q1 51 49 95t124 74q154 59 354 59t352 -31l-77 -358q243 -26 371 -146t128 -295q0 -255 -186 -435t-488 -181h-49l-45 -211h-295z"/>
<glyph glyph-name="afii10039" horiz-adv-x="1270" unicode="Х" d="M805 0l-109 512l-297 -512h-125l385 680l-151 719q-144 -54 -224 -169t-81 -286q0 -83 23 -125q5 -8 5 -14q-164 0 -205 105q-14 38 -14 94q0 102 64 198t167 170q233 164 488 164q42 0 82 -4l88 -426l238 420h143l-344 -596l192 -930h-325z"/>
<glyph glyph-name="afii10040" horiz-adv-x="1417" unicode="Ц" d="M551 150q110 0 266 -64l309 1446h295l-336 -1567q121 -49 215 -49t158 35q-13 -147 -71 -221q-57 -74 -181 -74t-250 89q-53 38 -107 83q-206 172 -460 172q-126 0 -186 -12v2q0 2 2 4l297 1397q-135 -57 -211 -169t-76 -278q0 -81 25 -125q4 -8 4 -14q-166 0 -205 105 q-14 38 -14 94q0 103 65 198q131 195 396 289q127 45 257 45q42 0 82 -4l-293 -1382h19z"/>
<glyph glyph-name="afii10041" horiz-adv-x="1423" unicode="Ч" d="M1008 682q-135 -80 -303 -80q-201 0 -267 160q-22 56 -22 150t22 196l64 285q-136 -58 -212 -171t-75 -278q0 -81 25 -125q4 -8 4 -14q-166 0 -205 105q-14 38 -14 94q0 103 65 198q131 195 396 289q127 45 257 45q42 0 82 -4l-92 -424q-28 -140 -28 -190q0 -86 43 -121 t104 -35q107 0 186 65l150 705h295l-326 -1532h-295z"/>
<glyph glyph-name="afii10042" horiz-adv-x="1855" unicode="Ш" d="M205 0l297 1393q-136 -58 -212 -171t-75 -278q0 -81 25 -125q4 -8 4 -14q-166 0 -205 105q-14 38 -14 94q0 103 65 198q131 195 396 289q127 45 257 45q42 0 82 -4l-295 -1380h240l295 1380h295l-295 -1380h260l295 1380h295l-326 -1532h-1384z"/>
<glyph glyph-name="afii10043" horiz-adv-x="1913" unicode="Щ" d="M600 152q59 0 166 -21l299 1401h295l-311 -1462l123 -30q63 -15 124 -32l324 1524h295l-338 -1587q141 -29 230 -29t147 35q-15 -147 -72 -221t-178 -74q-122 0 -377 89l-228 83q-455 172 -710 172q-138 0 -186 -12v4q0 6 2 8l297 1393q-136 -57 -212 -169t-75 -278 q0 -88 23 -128q5 -7 6 -13q-162 0 -204 100q-15 36 -15 88q0 110 65 207q134 203 396 292q129 44 255 44q44 0 84 -4l-295 -1382z"/>
<glyph glyph-name="afii10044" horiz-adv-x="1462" unicode="Ъ" d="M1106 520q0 252 -195 252q-54 0 -100 -22l-162 -750h-295l291 1354l-53 2q-86 0 -168 -14t-124 -62q-80 -89 -82 -222v-7q0 -137 77 -252q-35 -7 -85 -7t-104 35q-81 54 -81 174q0 205 187 369t531 164q138 0 234 -16l-143 -662q106 37 202 37q180 0 268 -104 q88 -103 87 -281q0 -178 -103 -344q-52 -84 -136 -142t-209 -57q-126 0 -176 81q-24 40 -24 88t23 102q58 -74 126 -74t106 34q108 96 108 324z"/>
<glyph glyph-name="afii10045" horiz-adv-x="1862" unicode="Ы" d="M1300 0l326 1532h295l-326 -1532h-295zM954 520q0 252 -194 252q-55 0 -101 -22l-159 -750h-295l297 1393q-136 -58 -212 -171t-75 -278q0 -81 25 -125q4 -8 4 -14q-166 0 -205 105q-14 38 -14 94q0 103 65 198q131 195 396 289q127 45 257 45q42 0 82 -4l-143 -676 q123 37 212 37q169 0 257 -103t88 -276q-1 -78 -25 -172t-78 -178t-136 -142q-83 -57 -176 -57q-158 0 -208 81q-24 40 -24 88t22 102q58 -74 126 -74t106 34t74 110q34 76 34 214z"/>
<glyph glyph-name="afii10046" horiz-adv-x="1311" unicode="Ь" d="M954 520q0 252 -194 252q-55 0 -101 -22l-159 -750h-295l297 1393q-136 -58 -212 -171t-75 -278q0 -81 25 -125q4 -8 4 -14q-166 0 -205 105q-14 38 -14 94q0 103 65 198q131 195 396 289q127 45 257 45q42 0 82 -4l-143 -676q123 37 212 37q169 0 257 -103t88 -276 q-1 -78 -25 -172t-78 -178t-136 -142q-83 -57 -176 -57q-158 0 -208 81q-24 40 -24 88t22 102q58 -74 126 -74t106 34t74 110q34 76 34 214z"/>
<glyph glyph-name="afii10047" horiz-adv-x="1114" unicode="Э" d="M-23 242q0 188 144 188q73 0 117 -53q-30 -21 -52 -75t-22 -108q0 -56 31 -94t91 -37q60 0 108 28q47 28 90 77q86 97 152 259t97 343h-434l33 152h420q4 48 4 111q0 153 -54 240t-202 87t-258 -132q-35 -42 -70 -93l-47 20q77 193 233 293q135 88 269 88t218 -27 t140 -87q111 -119 111 -378q0 -372 -166 -684q-94 -178 -246 -286t-354 -107q-248 0 -326 149q-27 52 -27 126z"/>
<glyph glyph-name="afii10048" horiz-adv-x="1937" unicode="Ю" d="M850 770h-186l-164 -770h-295l297 1393q-136 -58 -212 -171t-75 -278q0 -81 25 -125q4 -8 4 -14q-166 0 -205 105q-14 38 -14 94q0 103 65 198q131 195 396 289q127 45 257 45q42 0 82 -4l-131 -610h207q114 291 299 384q66 33 135 33t115 -16q-89 -53 -174 -221 q-118 -234 -162 -540q-14 -92 -14 -171q0 -237 119 -237q77 0 154 84q158 174 236 508q38 162 38 280t-15 184q-45 211 -268 211q-102 1 -176 -35t-111 -96q-8 23 -8 44q0 70 92 136t252 66q262 0 384 -131t122 -393q0 -351 -177 -660q-127 -221 -337 -316 q-107 -48 -215 -48t-175 22t-115 72q-48 49 -76 127q-27 77 -27 221t53 340z"/>
<glyph glyph-name="afii10049" horiz-adv-x="1290" unicode="Я" d="M387 758q-160 88 -160 292q-1 204 181 346q182 140 499 140q218 0 364 -91t146 -241t-124 -184q-40 -10 -91 -10l15 44q12 31 12 102q0 144 -80 211t-220 67q-243 0 -365 -110t-122 -258q0 -150 70 -222t158 -72h2l114 531l304 40l-287 -1343h-295l145 684 q-83 -4 -124 -24t-73 -50t-52 -84t-36 -118q-15 -64 -27 -128q-12 -66 -22 -112q-21 -99 -62 -151t-145 -52t-206 35q74 39 107 89t53 138l47 226q30 148 94 216t180 89z"/>
<glyph glyph-name="afii10065" horiz-adv-x="1077" unicode="а" d="M647 829q1 19 -17 49t-75 29q-57 0 -111 -61q-130 -147 -163 -422q-5 -42 -5 -89q0 -91 38 -127q22 -22 55 -22q61 0 111 48t69 133zM1163 367q-130 -379 -411 -379q-181 0 -201 188q-135 -188 -313 -188t-242 175q-23 63 -23 143t14 162q14 80 43 160q64 176 183 291 t287 115q88 0 127 -30t39 -74v-15l22 109h295l-147 -696q-9 -35 -9 -66q0 -88 84 -88q109 0 166 193h86z"/>
<glyph glyph-name="afii10066" horiz-adv-x="881" unicode="б" d="M297 207q25 -31 77 -31t88 32t64 84q50 93 74 222t25 203q0 75 -20 101q-19 26 -63 26t-84 -31t-70 -79q-56 -88 -86 -212t-30 -204t25 -111zM604 1192q-26 0 -26 -25q0 -12 34 -51q183 -214 183 -457t-130 -442q-63 -97 -155 -161t-189 -64q-178 0 -263 85t-85 261 q0 246 144 431q160 200 415 200q11 0 19 -1t16 -1q-41 49 -85 91t-81 82q-84 92 -84 172q-1 80 53 118q54 36 169 36h402q71 0 93 38q13 20 23 61h90q-49 -233 -117 -305q-39 -40 -94 -54t-135 -14h-197z"/>
<glyph glyph-name="afii10067" horiz-adv-x="920" unicode="в" d="M276 354q0 -178 125 -178q95 0 153 89t58 181t-18 129q-32 -12 -77 -12q-45 1 -74 27t-29 66q0 68 38 96t105 34q94 170 131 358q12 64 12 124t-16 86q-16 24 -50 24q-63 0 -132 -130q-114 -216 -195 -642q-31 -163 -31 -252zM788 612q11 -34 11 -118t-33 -178t-96 -165 q-138 -159 -359 -159q-169 0 -255 100t-85 266q0 166 83 439q90 298 225 502q158 239 333 239q96 0 158 -64t61 -224q0 -159 -111 -378l-56 -106q44 -22 77 -61q135 0 297 83q45 23 78 46l19 -56q-120 -126 -347 -166z"/>
<glyph glyph-name="afii10068" horiz-adv-x="768" unicode="г" d="M838 367q-243 -379 -547 -379q-334 0 -334 231q0 130 113 225q48 41 104 74t104 68q113 80 113 175t-94 95q-132 0 -221 -213h-99q69 191 173 295t284 104t244 -125q22 -45 22 -107t-18 -111t-48 -87q-49 -62 -150 -126l-79 -50q-87 -52 -112 -92t-25 -76 q0 -108 142 -108t264 109q45 40 94 98h70z"/>
<glyph glyph-name="afii10069" horiz-adv-x="1038" unicode="д" d="M446 -111q-200 -72 -200 -174q0 -41 39 -61q13 -6 38 -6t58 44t53 138zM647 831q0 46 -43 67q-16 9 -41 9q-65 0 -119 -61q-130 -147 -163 -422q-5 -42 -5 -89q0 -91 38 -127q22 -22 54 -22q57 0 106 44t69 116zM492 100q-107 -112 -246 -112q-186 0 -250 175 q-23 63 -23 143t14 162q14 80 43 160q64 176 183 291t287 115q88 0 127 -30t39 -74v-12l22 106h295l-203 -950q94 30 154 94t104 199h86q-78 -264 -264 -348q-51 -23 -98 -35l-31 -148q-39 -197 -156 -284q-86 -64 -197 -64t-178 49t-67 157q0 187 334 298z"/>
<glyph glyph-name="afii10070" horiz-adv-x="786" unicode="е" d="M594 860q0 74 -51 74q-75 -2 -145 -132t-101 -290q117 8 207 110t90 238zM856 367q-230 -379 -563 -379q-146 0 -233 76t-87 249q0 234 119 453q91 167 248 238q81 38 168 38q142 0 193 -54t51 -142q0 -176 -141 -298t-330 -134q-5 -58 -5 -82q0 -104 37 -138t104 -34 q119 0 199 52t170 155h70z"/>
<glyph glyph-name="afii10072" horiz-adv-x="1806" unicode="ж" d="M1620 850q0 84 -47 84q-78 0 -152 -199q-69 -198 -69 -381q0 -112 42 -164t112 -51q70 0 158 55t159 173h69q-71 -157 -206 -268t-280 -111q-144 0 -224 88t-80 237q0 102 16 179h-117l-102 -492h-274l104 492h-115q-67 -338 -274 -460q-75 -44 -158 -44q-142 0 -200 62 t-58 155q0 126 75 161q23 11 57 11t63 -29q-27 -74 -27 -138t24 -89t58 -25t64 42q93 130 132 345q19 101 19 193q0 215 -125 215q-59 0 -94 -40t-64 -114h-106q87 305 340 305q141 0 220 -88t79 -237q0 -51 -6 -103h123l86 410h274l-86 -410h115q86 294 269 392 q67 36 140 36q126 0 174 -54t48 -132t-31 -114t-71 -37q-40 0 -75 24q21 67 21 121z"/>
<glyph glyph-name="afii10073" horiz-adv-x="1020" unicode="з" d="M430 -111q-203 -71 -203 -174q-1 -27 17 -47t46 -20q51 0 89 70t51 171zM115 -313q0 194 321 301q-6 217 -147 217h-64l27 123h59q110 0 181 102t71 250q0 176 -125 176q-110 0 -196 -113t-156 -376h-86q58 229 96 321q76 182 179 268t262 86t247 -85t88 -253t-128 -308 q-65 -72 -117 -100t-72 -32q49 -17 98 -70t70 -135q117 37 183 101t114 207h86q-79 -268 -274 -354q-53 -23 -101 -36q-4 -229 -109 -359t-278 -130q-95 0 -162 49t-67 150z"/>
<glyph glyph-name="afii10074" d="M1120 367q-130 -379 -411 -379q-183 0 -203 194q-120 -194 -303 -194q-92 0 -156 58q-63 58 -63 187q0 58 16 134l139 657h295l-147 -696q-6 -32 -6 -58q0 -84 61 -84q108 0 164 181l139 657h295l-147 -696q-9 -35 -9 -72q0 -70 84 -70q115 0 166 181h86z" unicode="и"/>
<glyph glyph-name="afii10075" d="M402 1450q128 0 128 -117q0 -60 -49 -92q32 -8 82 -8q223 0 316 240h86q-96 -281 -297 -333q-64 -16 -163 -16t-169 48t-70 120q0 74 37 116t99 42zM1120 367q-130 -379 -411 -379q-183 0 -203 194q-120 -194 -303 -194q-92 0 -156 58q-63 58 -63 187q0 58 16 134 l139 657h295l-147 -696q-6 -32 -6 -58q0 -84 61 -84q108 0 164 181l139 657h295l-147 -696q-9 -35 -9 -72q0 -70 84 -70q115 0 166 181h86z" unicode="й"/>
<glyph glyph-name="afii10076" horiz-adv-x="1026" unicode="к" d="M518 645q46 8 86 8q111 1 153 -49t42 -141q0 -24 -4 -48l-9 -49q-12 -71 -12 -104q0 -76 82 -76q62 0 96 43t74 138h86q-129 -379 -373 -379q-125 0 -186 62t-61 165q0 51 12 105t12 90q0 98 -78 98q-36 0 -72 -28l-59 -48l-90 -432h-295l219 1024h295l-88 -406l128 132 l98 107q97 104 154 145q56 40 130 40t108 -38t35 -98q0 -60 -33 -96t-96 -36t-88 34q-24 34 -24 51v20q-58 -35 -104 -85l-76 -84q-29 -32 -62 -65z"/>
<glyph glyph-name="afii10077" horiz-adv-x="1143" unicode="л" d="M1229 367q-129 -379 -381 -379q-118 0 -180 62t-62 146t45 287l90 406q-103 0 -157 -86t-90 -258q-37 -173 -61 -267t-59 -158q-71 -132 -227 -132q-113 0 -169 68t-56 172t74 143q23 12 62 12q38 1 68 -29t30 -80t-25 -72q-25 -24 -57 -20q0 -21 16 -43t64 -22t80 33 q55 57 88 215l30 151q88 428 266 488q58 20 127 20h302l-145 -666q-13 -59 -13 -86q0 -86 82 -86q62 0 99 48t73 133h86z"/>
<glyph glyph-name="afii10078" horiz-adv-x="1583" unicode="м" d="M1669 367q-129 -379 -381 -379q-118 0 -180 62q-61 63 -61 151t43 276l32 146l-303 -623h-287l-36 625l-27 -129q-25 -124 -48 -218t-57 -158q-71 -132 -217 -132q-108 0 -167 72q-58 71 -58 153t34 123t87 41q53 1 83 -29t30 -80t-25 -72q-25 -24 -57 -20q-2 -22 14 -50 t68 -28t86 36t56 94t36 134q14 75 31 154l108 508h287l43 -786l381 786h303q-119 -554 -139 -640t-19 -112q0 -86 82 -86q62 0 99 48q37 47 73 133h86z"/>
<glyph glyph-name="afii10079" horiz-adv-x="1038" unicode="н" d="M502 205q0 70 47 287h-227l-105 -492h-295l217 1024h295l-88 -410h229l93 410h274l-108 -508l-36 -158q-14 -59 -14 -86q0 -86 82 -86q62 0 99 48q37 47 73 133h86q-129 -379 -381 -379q-118 0 -179 62q-62 63 -62 155z"/>
<glyph glyph-name="afii10080" horiz-adv-x="899" unicode="о" d="M618 602q-55 14 -55 91t64 106q-5 65 -21 92t-64 27q-94 0 -180 -208t-86 -368q0 -100 18 -126t38 -33t54 -7q70 0 139 123t93 303zM1151 778q-124 -130 -363 -170q-24 -280 -161 -448t-328 -168q-236 0 -304 174q-24 61 -24 135q1 75 13 151t39 157q61 183 177 297 q138 136 332 136q263 0 263 -327v-2q10 -2 34 -2q55 0 141 35t163 88z"/>
<glyph glyph-name="afii10081" d="M780 274q0 -88 75 -88q69 0 106 44t73 137h86q-119 -345 -322 -375q-32 -4 -79 -4t-93 20q-128 54 -128 211q0 84 46 268t46 254q0 105 -74 105t-132 -117q-17 -33 -28 -72l-139 -657h-295l217 1024h295l-22 -106q100 114 239 114q98 0 163 -54t65 -160t-34 -240 l-49 -198q-16 -65 -16 -106z" unicode="п"/>
<glyph glyph-name="afii10082" horiz-adv-x="989" unicode="р" d="M627 717q0 170 -103 170q-36 0 -74 -25t-67 -76l-121 -573q18 -47 88 -47t124 58q107 114 138 326q15 94 15 167zM229 61l-106 -499l-309 -74l342 1612h295l-33 -154q102 88 239 88q177 0 231 -170q19 -62 19 -142q1 -80 -9 -162q-10 -80 -33 -160t-61 -155 q-38 -73 -93 -131q-57 -58 -133 -92t-190 -34t-159 73z"/>
<glyph glyph-name="afii10083" horiz-adv-x="786" unicode="с" d="M506 1042q246 0 246 -186q0 -78 -32 -114t-72 -37q-40 0 -77 24q25 66 25 121q0 84 -58 84t-124 -106q-93 -150 -128 -373q-10 -67 -10 -147q0 -148 141 -148q119 0 199 52t170 155h70q-230 -379 -563 -379q-146 0 -233 76t-87 249q0 235 119 454q90 165 247 237 q81 38 167 38z"/>
<glyph glyph-name="afii10084" horiz-adv-x="1540" unicode="т" d="M1266 -12q-262 0 -262 231q0 84 46 268t46 254q0 105 -74 105t-132 -117q-17 -33 -28 -72l-139 -657h-295l150 707q6 24 6 51q0 90 -60 90t-104 -56q-42 -56 -64 -135l-139 -657h-295l217 1024h295l-22 -106q102 116 250 116q181 0 210 -176q113 174 285 174 q97 0 162 -54t65 -158t-34 -240l-48 -200q-16 -65 -16 -106q0 -88 75 -88q69 0 106 44t73 137h86q-76 -226 -192 -317q-80 -62 -168 -62z"/>
<glyph glyph-name="afii10085" horiz-adv-x="995" unicode="у" d="M403 -111q-200 -72 -200 -174q0 -41 39 -61q13 -6 38 -6t58 44t53 138zM281 276q1 -90 59 -90t99 48q40 49 63 120l143 670h295l-203 -950q93 30 153 94t105 199h86q-78 -264 -264 -348q-51 -23 -98 -35l-31 -148q-39 -197 -156 -284q-86 -64 -197 -64t-178 49t-67 157 q0 187 334 298l25 110q-106 -114 -246 -114q-92 0 -156 58q-63 58 -63 187q0 58 16 134l139 657h295l-147 -696q-6 -26 -6 -52z"/>
<glyph glyph-name="afii10086" horiz-adv-x="1511" unicode="ф" d="M356 -512l136 612q-104 -112 -236 -112t-208 79t-77 250q0 230 129 461q60 112 164 184t234 72q168 0 168 -112l102 471l283 41l-111 -488q100 88 240 88q250 0 250 -314t-120 -510q-135 -222 -392 -222q-123 0 -166 73l-107 -499zM645 838q-13 69 -89 69t-146 -102 q-69 -103 -98 -215q-39 -149 -39 -248q0 -105 40 -137q21 -21 49 -21t61 15q79 36 114 133zM784 213q16 -47 70 -47t94 23t71 63q59 74 95 204t35 261q0 170 -102 170q-83 0 -142 -101z"/>
<glyph glyph-name="afii10087" horiz-adv-x="1069" unicode="х" d="M866 926q-96 0 -96 114q0 54 42 78t84 23q66 0 97 -56q31 -55 31 -117t-18 -108q-33 -88 -142 -212l-125 -140l19 -143q12 -97 35 -129t44 -41t48 -9q59 0 110 51t74 130h86q-76 -214 -205 -309q-95 -70 -205 -70h-8q-193 0 -250 356l-282 -344h-148l414 467l-33 229 q-18 104 -34 137t-45 33q-65 0 -143 -130t-130 -369h-86q49 214 91 306t71 141q64 104 143 162t160 58t121 -24t74 -70q32 -48 45 -149l18 -156q171 191 178 295q-17 -4 -35 -4z"/>
<glyph glyph-name="afii10088" horiz-adv-x="1096" unicode="ц" d="M281 270q0 -84 61 -84q108 0 164 181l139 657h295l-147 -696q-9 -35 -9 -72q0 -70 84 -70h105q-36 -360 -166 -486q-58 -57 -117 -71t-108 -14h-233q-71 0 -94 -37q-13 -20 -22 -61h-90q49 231 119 303q38 41 92 55t135 14h160q43 1 78 3t62 19q56 35 81 161 q-72 -74 -136 -82q-21 -2 -46 -2q-72 0 -122 48t-60 146q-120 -194 -303 -194q-92 0 -156 58q-63 58 -63 187q0 58 16 134l139 657h295l-147 -696q-6 -32 -6 -58z"/>
<glyph glyph-name="afii10089" d="M348 586q0 -84 60 -84t105 51q43 51 60 129l72 342h295l-147 -696q-9 -35 -9 -72q0 -70 84 -70q115 0 166 181h86q-76 -221 -208 -315q-90 -64 -193 -64t-167 58q-63 58 -63 187q0 54 17 134l10 51q-104 -115 -246 -115q-92 0 -156 58q-63 58 -63 188q0 53 17 133l71 342 h295l-80 -381q-6 -32 -6 -57z" unicode="ч"/>
<glyph glyph-name="afii10090" horiz-adv-x="1540" unicode="ш" d="M786 270q0 -84 62 -84q108 0 164 181l139 657h295l-148 -696q-8 -37 -8 -73q0 -69 84 -69q115 0 166 181h86q-132 -379 -412 -379q-182 0 -202 194q-120 -194 -303 -194t-203 194q-120 -194 -303 -194q-92 0 -156 58q-63 58 -63 187q0 58 16 134l139 657h295l-147 -696 q-6 -32 -6 -58q0 -84 61 -84q108 0 164 181l139 657h295l-147 -696q-7 -29 -7 -58z"/>
<glyph glyph-name="afii10091" horiz-adv-x="1602" unicode="щ" d="M786 270q0 -84 62 -84q108 0 164 181l139 657h295l-148 -696q-8 -37 -8 -73q0 -69 84 -69h105q-36 -362 -167 -486q-58 -57 -116 -71t-109 -14h-232q-71 0 -94 -37q-13 -20 -22 -61h-90q49 230 119 303q38 41 92 55t135 14h160q43 1 78 3t62 19q56 35 81 161 q-72 -74 -136 -82q-21 -2 -46 -2q-72 0 -122 48t-60 146q-120 -194 -303 -194t-203 194q-120 -194 -303 -194q-92 0 -156 58q-63 58 -63 187q0 58 16 134l139 657h295l-147 -696q-6 -32 -6 -58q0 -84 61 -84q108 0 164 181l139 657h295l-147 -696q-7 -29 -7 -58z"/>
<glyph glyph-name="afii10092" horiz-adv-x="918" unicode="ъ" d="M467 582q-66 0 -121 -35q-55 -149 -61 -202t-6 -79q0 -104 81 -104q86 0 146 102t61 210q0 108 -100 108zM260 913q-113 0 -113 -29q-1 -8 3 -9t12 -7t8 -48t-34 -68t-64 -25q-51 0 -79 24t-28 65q0 80 65 144t173 64h368l-61 -98q-80 -127 -127 -256q101 63 207 63 t176 -64t70 -184q0 -227 -158 -362t-378 -135t-288 146q-24 50 -24 112t16 121q16 58 44 116t64 115q65 101 162 216l86 99h-100z"/>
<glyph glyph-name="afii10093" horiz-adv-x="1341" unicode="ы" d="M1427 367q-129 -379 -378 -379q-118 0 -180 63t-62 147q0 83 48 299l65 291l-230 -133q49 -76 49 -219q0 -142 -109 -282q-128 -166 -349 -166q-141 0 -217 69t-76 193q0 55 14 117l135 657h283l-152 -721q-6 -18 -6 -57q0 -84 89 -84t155 100q67 101 67 240q0 51 -30 78 q-25 -19 -57 -19t-63 20q-30 21 -30 69t37 70q36 23 80 23t82 -12q76 34 140 69l250 147q63 38 136 77h127l-108 -508l-37 -158q-13 -59 -13 -86q0 -86 82 -86q62 0 99 48q37 47 73 133h86z"/>
<glyph glyph-name="afii10094" horiz-adv-x="918" unicode="ь" d="M285 303q-6 -18 -6 -57q0 -84 88 -84q76 0 138 94t62 174q0 152 -110 152q-65 0 -121 -37zM367 692q98 41 181 41q146 0 217 -72q71 -71 71 -191t-72 -240t-220 -192q-103 -50 -247 -50q-145 0 -227 70t-82 192q0 55 14 117l139 657h295z"/>
<glyph glyph-name="afii10095" horiz-adv-x="877" unicode="э" d="M487 614q5 52 5 78q0 106 -40 142t-116 36q-74 0 -118 -34t-81 -99h-104q63 151 159 228t257 77t253 -80t93 -255q0 -222 -136 -445q-167 -274 -473 -274q-126 0 -194 58t-68 172t74 148q21 11 55 11t66 -29q-27 -74 -27 -139q0 -113 113 -113q84 0 157 117t107 279h-254 l27 122h245z"/>
<glyph glyph-name="afii10096" horiz-adv-x="1382" unicode="ю" d="M1102 602q-55 13 -55 91t63 106q-4 65 -20 92t-64 27q-94 0 -180 -204t-86 -372q0 -98 18 -125t37 -34q20 -7 53 -7q32 0 70 33t70 90q70 122 94 303zM1634 778q-123 -130 -362 -170q-24 -280 -161 -448t-329 -168q-235 0 -303 174q-24 61 -24 144t18 182h-154l-102 -492 h-295l217 1024h295l-86 -410h160q98 290 322 391q82 37 186 37q262 0 262 -327v-2q10 -2 34 -2q56 0 142 35t162 88z"/>
<glyph glyph-name="afii10097" horiz-adv-x="1079" unicode="я" d="M684 913h-49q-122 0 -183 -66q-61 -65 -61 -163t43 -132t105 -34h32q15 0 27 4zM328 432q-195 45 -195 238q0 248 283 326q103 28 256 28h311q-119 -554 -139 -640t-19 -112q0 -86 82 -86q62 0 99 48t73 133h86q-129 -379 -381 -379q-118 0 -180 62t-61 144q0 81 37 240 q-56 -12 -115 -12q-57 -238 -100 -308t-92 -98t-114 -28q-117 0 -177 66t-60 173q0 106 74 144q23 12 62 12q38 1 68 -29t30 -80t-25 -72q-25 -24 -57 -20q6 -65 79 -65t107 87t68 228z"/>
<glyph glyph-name="afii10071" horiz-adv-x="786" unicode="ё" d="M457 1209q-38 -35 -77 -35q-66 0 -101 36t-35 87q0 52 35 89q37 37 89 37q52 -1 89 -37t37 -88t-37 -89zM825 1209q-38 -35 -77 -35q-64 0 -100 35t-36 88t36 89t88 37q52 -1 89 -37t37 -88t-37 -89zM594 860q0 74 -51 74q-75 -2 -145 -132t-101 -290q117 8 207 110 t90 238zM856 367q-230 -379 -563 -379q-146 0 -233 76t-87 249q0 234 119 453q91 167 248 238q81 38 168 38q142 0 193 -54t51 -142q0 -176 -141 -298t-330 -134q-5 -58 -5 -82q0 -104 37 -138t104 -34q119 0 199 52t170 155h70z"/>
<glyph glyph-name="afii10099" horiz-adv-x="1006" unicode="ђ" d="M416 -104q-145 -56 -186 -121q-17 -27 -17 -49q0 -34 19 -56t51 -22t65 44q32 44 46 111q14 66 22 93zM381 776q101 115 242 115q99 -1 163 -55t64 -177q0 -42 -14 -110l-105 -475q96 31 164 95q67 64 111 198h86q-80 -262 -278 -347q-55 -24 -105 -36l-33 -148 q-65 -287 -244 -334q-51 -14 -124 -14q-72 0 -140 50t-68 160t111 194q87 67 225 106l105 484q7 31 11 52l6 31q3 22 3 35q0 105 -74 105q-55 1 -99 -55t-62 -134l-109 -516h-295l217 1024h-110l22 111h113l55 258l303 41l-63 -299h256l-25 -111h-256z"/>
<glyph glyph-name="afii10100" horiz-adv-x="768" unicode="ѓ" d="M400 1149l186 387h215l-248 -387h-153zM838 367q-243 -379 -547 -379q-334 0 -334 231q0 130 113 225q48 41 104 74t104 68q113 80 113 175t-94 95q-132 0 -221 -213h-99q69 191 173 295t284 104t244 -125q22 -45 22 -107t-18 -111t-48 -87q-49 -62 -150 -126l-79 -50 q-87 -52 -112 -92t-25 -76q0 -108 142 -108t264 109q45 40 94 98h70z"/>
<glyph glyph-name="afii10101" horiz-adv-x="786" unicode="є" d="M506 1042q246 0 246 -186q0 -78 -32 -114t-72 -37q-40 0 -77 24q25 66 25 121q0 84 -57 84q-91 0 -173 -199q-24 -58 -42 -121h243l-26 -122h-248q-17 -88 -17 -176t37 -122t104 -34q119 0 199 52t170 155h70q-230 -379 -563 -379q-146 0 -233 76t-87 249q0 235 119 454 q90 165 247 237q81 38 167 38z"/>
<glyph glyph-name="afii10102" horiz-adv-x="782" unicode="ѕ" d="M150 150q196 0 196 190q0 53 -8 125l-12 117q-11 112 -19 243q-52 -168 -166 -387q47 -22 47 -66t-24 -74q-24 -32 -66 -32t-55 27q0 -143 107 -143zM868 367q-127 -148 -313 -256q-116 -123 -322 -123q-143 0 -221 78t-78 168q0 88 34 137t75 69q144 258 252 607l303 40 q8 -192 16 -321l25 -325q4 -48 4 -95t-8 -82q90 52 147 103h86z"/>
<glyph glyph-name="afii10103" horiz-adv-x="547" unicode="і" d="M633 367q-132 -379 -441 -379q-81 0 -145 58q-63 58 -63 187q0 58 16 134l139 657h295l-147 -696q-8 -37 -8 -73q0 -69 83 -69q60 0 112 52t73 129h86zM506 1296q0 -68 -48 -114t-116 -47q-68 0 -115 47t-47 114q0 68 46 116t116 48q68 0 116 -48t48 -116z"/>
<glyph glyph-name="afii10104" horiz-adv-x="547" unicode="ї" d="M538 1174q-96 0 -128 74q-9 22 -9 62t36 76q37 36 89 37q52 -1 88 -37t37 -88q0 -52 -37 -88t-76 -36zM246 1209q-38 -35 -76 -35q-66 0 -102 36t-35 87q0 52 35 89q36 37 88 37q52 -1 90 -37q37 -36 37 -88t-37 -89zM633 367q-132 -379 -441 -379q-81 0 -145 58 q-63 58 -63 187q0 58 16 134l139 657h295l-147 -696q-8 -37 -8 -73q0 -69 83 -69q60 0 112 52t73 129h86z"/>
<glyph glyph-name="afii10105" horiz-adv-x="492" unicode="ј" d="M-100 -111q-201 -70 -201 -174q0 -41 39 -61q13 -6 38 -6t58 44t53 138zM489 1298q-1 -68 -49 -114t-115 -47q-67 0 -114 47t-47 114q0 68 46 116t115 48q68 0 116 -48t48 -116zM184 -164q-39 -197 -156 -284q-86 -64 -196 -64t-178 50t-68 149q0 166 218 260 q60 26 118 45l219 1032h295l-203 -950q95 32 155 95t104 198h86q-80 -263 -264 -347q-51 -24 -99 -36z"/>
<glyph glyph-name="afii10106" horiz-adv-x="1526" unicode="љ" d="M893 303q-6 -18 -6 -57q0 -84 88 -84q75 0 138 94t63 174q0 152 -111 152q-65 0 -121 -37zM975 692q97 41 213 41t186 -71q70 -70 70 -216t-121 -287q-154 -171 -410 -171q-139 0 -220 70t-81 192q0 57 15 117l114 522q-103 0 -157 -86t-90 -258q-37 -173 -61 -267 t-59 -158q-71 -132 -227 -132q-113 0 -169 68t-56 172t74 143q23 12 62 12q38 1 68 -29t30 -80t-25 -72q-25 -24 -57 -20q0 -21 16 -43t64 -22t80 33q55 57 88 215l30 151q88 428 266 488q58 20 127 20h302z"/>
<glyph glyph-name="afii10107" horiz-adv-x="1421" unicode="њ" d="M788 303q-6 -18 -6 -57q0 -84 88 -84q75 0 138 94t63 174q0 152 -110 152q-65 0 -121 -37zM870 692q98 41 214 41t185 -71q70 -71 70 -192q0 -176 -137 -329q-49 -53 -150 -103q-102 -50 -242 -50t-221 70t-81 192q0 55 14 117l27 125h-227l-105 -492h-295l217 1024h295 l-88 -410h232l90 410h274z"/>
<glyph glyph-name="afii10108" d="M780 278q0 -92 75 -92q69 0 106 44t73 137h86q-119 -345 -322 -375q-32 -4 -79 -4t-93 20q-128 54 -128 211q0 60 22 157l31 143q10 47 10 81q0 105 -74 105q-55 1 -99 -55t-62 -134l-109 -516h-295l217 1024h-110l22 111h113l55 258l303 41l-63 -299h256l-25 -111h-256 l-53 -248q101 115 242 115q99 -1 163 -55t64 -177q0 -63 -35 -200t-35 -181z" unicode="ћ"/>
<glyph glyph-name="afii10109" horiz-adv-x="1026" unicode="ќ" d="M475 1149l186 387h215l-248 -387h-153zM518 645q46 8 86 8q111 1 153 -49t42 -141q0 -24 -4 -48l-9 -49q-12 -71 -12 -104q0 -76 82 -76q62 0 96 43t74 138h86q-129 -379 -373 -379q-125 0 -186 62t-61 165q0 51 12 105t12 90q0 98 -78 98q-36 0 -72 -28l-59 -48 l-90 -432h-295l219 1024h295l-88 -406l128 132l98 107q97 104 154 145q56 40 130 40t108 -38t35 -98q0 -60 -33 -96t-96 -36t-88 34q-24 34 -24 51v20q-58 -35 -104 -85l-76 -84q-29 -32 -62 -65z"/>
<glyph glyph-name="afii10110" horiz-adv-x="995" unicode="ў" d="M403 -111q-200 -72 -200 -174q0 -41 39 -61q13 -6 38 -6t58 44t53 138zM402 1450q128 0 128 -117q0 -60 -49 -92q32 -8 82 -8q223 0 316 240h86q-96 -281 -297 -333q-64 -16 -163 -16t-169 48t-70 120q0 74 37 116t99 42zM281 276q0 -90 61 -90q87 0 136 101q15 31 24 67 l143 670h295l-203 -950q93 30 153 94t105 199h86q-78 -264 -264 -348q-51 -23 -98 -35l-31 -148q-39 -197 -156 -284q-86 -64 -197 -64t-178 49t-67 157q0 187 334 298l25 110q-106 -114 -246 -114q-92 0 -156 58q-63 58 -63 187q0 58 16 134l139 657h295l-147 -696 q-6 -26 -6 -52z"/>
<glyph glyph-name="afii10193" d="M596 -291q-4 -107 -111 -221h-104q27 27 27 60q0 32 -16 54t-34 44q-49 59 -49 125q0 120 109 229h104q-26 -26 -26 -56t16 -52l34 -48q50 -68 50 -135zM1120 367q-130 -379 -411 -379q-183 0 -203 194q-120 -194 -303 -194q-92 0 -156 58q-63 58 -63 187q0 58 16 134 l139 657h295l-147 -696q-6 -32 -6 -58q0 -84 61 -84q108 0 164 181l139 657h295l-147 -696q-9 -35 -9 -72q0 -70 84 -70q115 0 166 181h86z" unicode="џ"/>
<glyph glyph-name="afii10050" horiz-adv-x="883" unicode="Ґ" d="M1038 1290q-80 0 -272 41l-285 -1331h-295l295 1368q-132 -4 -199 -97t-67 -327q0 -81 25 -125q4 -8 4 -14q-166 0 -205 105q-14 38 -14 100t15 128t50 125q76 127 234 200t411 73q51 0 147 -12t146 -11q100 0 150 79q29 49 55 190q43 -36 67 -94t23 -119 q0 -129 -77 -204t-208 -75z"/>
<glyph glyph-name="afii10098" horiz-adv-x="700" unicode="ґ" d="M606 1055q-33 13 -33 51t25 66q26 28 78 28t77 -30t25 -72q0 -93 -63 -156t-174 -63h-138l-186 -879h-295l217 1024h377q83 0 90 31z"/>
<glyph glyph-name="endash" horiz-adv-x="721" unicode="–" d="M39 455l37 161h532l-35 -161h-534z"/>
<glyph glyph-name="emdash" horiz-adv-x="909" unicode="—" d="M39 455l37 161h717l-35 -161h-719z"/>
<glyph glyph-name="quoteleft" horiz-adv-x="625" unicode="‘" d="M438 1081q0 -18 -18 -28q-118 75 -183 169t-65 165q0 69 34 107t97 38t107 -42t43 -93q0 -86 -91 -137q-24 -17 -24 -35z"/>
<glyph glyph-name="quotesinglbase" horiz-adv-x="580" unicode="‚" d="M270 -8q0 18 -24 35q-90 51 -90 119t43 111q43 42 107 42q64 1 96 -37q34 -38 34 -108t-64 -163t-184 -171q-18 10 -18 28z"/>
<glyph glyph-name="quotedblleft" horiz-adv-x="1042" unicode="“" d="M322 1360q0 -18 24 -35q90 -51 90 -137q0 -51 -44 -93t-105 -42q-131 0 -131 145q0 70 65 164t182 170q19 -10 19 -28zM772 1360q0 -19 25 -35q90 -51 90 -137q1 -51 -43 -93t-107 -42q-63 -1 -97 37t-34 108t65 164t183 170q18 -10 18 -28z"/>
<glyph glyph-name="quotedblright" horiz-adv-x="1042" unicode="”" d="M721 1225q0 19 -25 35q-90 52 -90 120t43 110t107 42t97 -38q34 -38 34 -108t-65 -164t-183 -169q-18 10 -18 28zM270 1225q0 18 -24 35q-90 52 -90 120t43 110t107 42t96 -38q34 -38 34 -108t-65 -164t-183 -169q-18 10 -18 28z"/>
<glyph glyph-name="dagger" horiz-adv-x="1014" unicode="†" d="M193 -512l245 1159h-299l49 230h297l142 659h147l-141 -659h309l-47 -230h-309l-246 -1159h-147z"/>
<glyph glyph-name="daggerdbl" horiz-adv-x="1014" unicode="‡" d="M193 -512l151 719h-295l49 229h295l45 211h-299l49 230h297l142 659h147l-141 -659h309l-47 -230h-309l-45 -211h311l-47 -229h-313l-152 -719h-147z"/>
<glyph glyph-name="ellipsis" horiz-adv-x="1438" unicode="…" d="M1324 269q48 -48 48 -116q0 -69 -48 -115t-116 -46q-67 0 -114 47t-47 114q1 67 47 115t114 49q68 0 116 -48zM822 269q48 -48 48 -116q0 -69 -48 -115t-116 -46q-67 0 -114 47t-47 114q1 67 47 115t114 49q68 0 116 -48zM341 269q48 -48 48 -116q-1 -69 -49 -115 t-114 -46t-116 47q-47 47 -47 114t47 116q48 48 116 48t115 -48z"/>
<glyph glyph-name="perthousand" horiz-adv-x="1866" unicode="‰" d="M1585 596q-50 0 -96 -76q-70 -114 -70 -311q0 -51 10 -92t48 -41q75 0 120 109t45 260t-57 151zM1478 0q-116 0 -156 57t-40 161q0 202 90 328t242 126q92 0 140 -59t48 -195t-72 -263q-88 -155 -252 -155zM995 596q-50 0 -100 -82t-61 -217q-5 -31 -5 -85t10 -95t48 -41 q75 0 121 110t45 260q0 150 -58 150zM888 0q-112 0 -154 58t-42 162q0 200 90 326t242 126q92 0 140 -59t48 -195t-72 -263q-88 -155 -252 -155zM408 1288q-26 -38 -51 -108t-25 -164q0 -92 10 -133t48 -41q76 0 124 120q47 112 47 275q0 53 -9 91t-42 38q-51 0 -102 -78z M376 766q-108 0 -150 58t-42 162q0 200 90 326t242 126q90 0 129 -60t39 -190q0 -132 -84 -277t-224 -145zM213 0l791 1536h147l-791 -1536h-147z"/>
<glyph glyph-name="guilsinglleft" horiz-adv-x="735" unicode="‹" d="M41 487l18 84l629 349l-20 -113l-494 -287l397 -237l-24 -117z"/>
<glyph glyph-name="guilsinglright" horiz-adv-x="705" unicode="›" d="M31 166l28 117l492 237l-397 287l18 113l504 -349l-23 -110z"/>
<glyph glyph-name="Euro" horiz-adv-x="1174" unicode="€" d="M1214 1262q0 -189 -143 -189q-72 0 -117 53q55 20 83 123q7 26 7 42q0 53 -21 89q-35 60 -110 60q-133 0 -229 -148t-149 -372h413l-28 -103h-408q-6 -35 -9 -67t-7 -66h401l-29 -102h-379v-27q0 -211 55 -297t222 -86t248 42q31 16 61 40l4 -59q-89 -119 -203 -163 t-278 -44t-283 104q-147 128 -147 418v72h-174l29 102h151q12 102 16 133h-145l29 103h137q101 429 394 566q108 50 253 50q246 0 328 -149q28 -52 28 -125z"/>
<glyph glyph-name="trademark" horiz-adv-x="776" unicode="™" d="M391 1348q-16 -80 -51 -80q-26 0 -56 7t-65 11l-86 -399h-88l88 407q-123 -2 -123 -125q0 -21 8 -41q-65 0 -65 60q0 109 111 146q40 14 98 14l153 -11q54 0 76 11zM594 887l55 319l-129 -319h-84v268l-82 -268h-49l139 430l84 12v-346l136 356h96l-78 -452h-88z"/>
<glyph glyph-name="minus" horiz-adv-x="909" unicode="−" d="M39 455l37 161h717l-35 -161h-719z"/>
</font>
</defs>
</svg>
